<svg width="1440" height="900" viewBox="0 0 1440 900" fill="none" xmlns="http://www.w3.org/2000/svg">
<rect width="1440" height="905" fill="#5135ED"/>
<path d="M-1 292.5H1440" stroke="white" stroke-width="3"/>
<path d="M-1 317L1440 317" stroke="white" stroke-width="3"/>
<line y1="480.5" x2="1440" y2="480.5" stroke="white" stroke-width="3"/>
<line y1="547.5" x2="1440" y2="547.5" stroke="white" stroke-width="3"/>
<line y1="608.5" x2="1440" y2="608.5" stroke="white" stroke-width="3"/>
<line x1="-0.00104167" y1="377.5" x2="1440" y2="376.5" stroke="white" stroke-width="3"/>
<path d="M534.134 7.79303L554 28.2734V-110H514.889V28.2734L534.134 7.79303Z" fill="white" stroke="white" stroke-width="2"/>
<path d="M472.304 7.79303L491.844 28.2734V-110H453.374V28.2734L472.304 7.79303Z" fill="white" stroke="white" stroke-width="2"/>
<path d="M410.788 7.79303L430.328 28.2734V-110H391.858V28.2734L410.788 7.79303Z" fill="white" stroke="white" stroke-width="2"/>
<path d="M348.948 7.79303L368.813 28.2734V-110H329.702V28.2734L348.948 7.79303Z" fill="white" stroke="white" stroke-width="2"/>
<path d="M287.117 7.79303L306.657 28.2734V-110H268.187V28.2734L287.117 7.79303Z" fill="white" stroke="white" stroke-width="2"/>
<path d="M225.601 7.79303L245.141 28.2734V-110H206.672V28.2734L225.601 7.79303Z" fill="white" stroke="white" stroke-width="2"/>
<path d="M164.086 7.79303L183.626 28.2734V-110H145.156V28.2734L164.086 7.79303Z" fill="white" stroke="white" stroke-width="2"/>
<path d="M102.245 7.79303L122.111 28.2734V-110H83V28.2734L102.245 7.79303Z" fill="white" stroke="white" stroke-width="2"/>
<path d="M1339.13 891.481L1359 871.001V1009.27H1319.89V871.001L1339.13 891.481Z" fill="white" stroke="white" stroke-width="2"/>
<path d="M1277.3 891.481L1296.84 871.001V1009.27H1258.37V871.001L1277.3 891.481Z" fill="white" stroke="white" stroke-width="2"/>
<path d="M1215.79 891.481L1235.33 871.001V1009.27H1196.86V871.001L1215.79 891.481Z" fill="white" stroke="white" stroke-width="2"/>
<path d="M1153.95 891.481L1173.81 871.001V1009.27H1134.7V871.001L1153.95 891.481Z" fill="white" stroke="white" stroke-width="2"/>
<path d="M1092.12 891.481L1111.66 871.001V1009.27H1073.19V871.001L1092.12 891.481Z" fill="white" stroke="white" stroke-width="2"/>
<path d="M1030.6 891.481L1050.14 871.001V1009.27H1011.67V871.001L1030.6 891.481Z" fill="white" stroke="white" stroke-width="2"/>
<path d="M969.086 891.481L988.626 871.001V1009.27H950.156V871.001L969.086 891.481Z" fill="white" stroke="white" stroke-width="2"/>
<path d="M907.245 891.481L927.111 871.001V1009.27H888V871.001L907.245 891.481Z" fill="white" stroke="white" stroke-width="2"/>
<path d="M218 318H188.091V432M218 546H188.091V432M188.091 432H162" stroke="white" stroke-width="2" stroke-dasharray="9 9"/>
<path d="M914.696 203.137L787.5 671.552" stroke="white" stroke-width="3"/>
<line x1="822.329" y1="199.061" x2="805.606" y2="608.366" stroke="white" stroke-width="3"/>
<path d="M825.881 211.346C825.377 212.003 825.501 212.945 826.158 213.449L836.87 221.666C837.527 222.17 838.469 222.046 838.973 221.388C839.477 220.731 839.353 219.789 838.696 219.285L829.174 211.982L836.478 202.46C836.982 201.803 836.858 200.861 836.201 200.357C835.543 199.853 834.602 199.977 834.098 200.634L825.881 211.346ZM867.5 212.259L867.71 210.774L867.5 212.259ZM902.788 226.429C903.586 226.209 904.056 225.384 903.836 224.585L900.254 211.569C900.035 210.77 899.209 210.301 898.41 210.52C897.611 210.74 897.142 211.566 897.362 212.365L900.545 223.935L888.975 227.118C888.177 227.338 887.707 228.164 887.927 228.962C888.147 229.761 888.973 230.231 889.771 230.011L902.788 226.429ZM827.071 212.259C827.267 213.746 827.267 213.746 827.267 213.746C827.267 213.746 827.267 213.746 827.267 213.746C827.268 213.746 827.269 213.746 827.27 213.746C827.272 213.745 827.275 213.745 827.28 213.744C827.289 213.743 827.303 213.741 827.322 213.739C827.36 213.734 827.418 213.727 827.495 213.717C827.649 213.698 827.879 213.67 828.18 213.636C828.781 213.567 829.665 213.471 830.788 213.364C833.034 213.151 836.235 212.894 840.041 212.723C847.663 212.38 857.668 212.383 867.29 213.744L867.5 212.259L867.71 210.774C857.832 209.376 847.623 209.379 839.906 209.726C836.042 209.9 832.791 210.16 830.504 210.378C829.36 210.486 828.457 210.584 827.838 210.656C827.528 210.691 827.289 210.72 827.127 210.74C827.046 210.75 826.984 210.758 826.942 210.763C826.921 210.766 826.904 210.768 826.893 210.769C826.888 210.77 826.883 210.771 826.88 210.771C826.879 210.771 826.878 210.771 826.877 210.772C826.876 210.772 826.876 210.772 826.876 210.772C826.875 210.772 826.875 210.772 827.071 212.259ZM867.5 212.259L867.29 213.744C875.419 214.894 883.997 218.014 890.59 220.88C893.876 222.308 896.648 223.664 898.596 224.661C899.569 225.16 900.336 225.568 900.858 225.851C901.119 225.993 901.319 226.103 901.452 226.177C901.519 226.214 901.569 226.242 901.602 226.261C901.618 226.27 901.63 226.277 901.638 226.281C901.642 226.283 901.645 226.285 901.647 226.286C901.647 226.286 901.648 226.287 901.648 226.287C901.648 226.287 901.648 226.287 901.649 226.287C901.648 226.287 901.648 226.287 902.39 224.983C903.131 223.679 903.131 223.679 903.13 223.679C903.13 223.678 903.13 223.678 903.129 223.678C903.128 223.678 903.127 223.677 903.126 223.676C903.123 223.675 903.119 223.672 903.115 223.67C903.105 223.664 903.09 223.656 903.072 223.646C903.035 223.625 902.98 223.594 902.909 223.555C902.767 223.476 902.559 223.361 902.288 223.214C901.748 222.921 900.96 222.501 899.963 221.991C897.971 220.971 895.141 219.587 891.786 218.129C885.097 215.221 876.231 211.979 867.71 210.774L867.5 212.259Z" fill="white"/>
</svg>
