<svg width="1440" height="394" viewBox="0 0 1440 394" fill="none" xmlns="http://www.w3.org/2000/svg">
<ellipse cx="720.5" cy="415.5" rx="863.5" ry="415.5" fill="white"/>
<path d="M-33.4807 247.472C-22.4201 241.141 -7.58658 232.508 3.61012 226.99C3.77491 226.908 3.94004 226.826 4.10534 226.745C9.04268 224.295 13.7953 222.035 19.7313 219.268C20.4916 218.913 21.2754 218.549 22.0804 218.176C29.5497 214.705 37.6643 211.015 49.8483 205.622C89.6767 188.042 121.708 174.724 131.606 170.577C151.437 162.34 173.029 154.233 202.741 144.251C205.448 143.344 208.242 142.419 211.127 141.471C213.464 140.703 215.524 140.408 215.714 140.809C215.903 141.211 214.149 142.156 211.813 142.924C208.991 143.851 206.259 144.757 203.614 145.642C203.602 145.646 203.59 145.65 203.578 145.654C173.728 155.677 152.582 163.626 133.282 171.624C123.13 175.866 90.3557 189.461 49.6405 207.467C37.2976 212.943 29.0532 216.707 21.6183 220.169C20.8355 220.533 20.0768 220.886 19.3435 221.229C19.3262 221.237 19.3088 221.245 19.2916 221.253C13.4083 224 8.70904 226.247 4.06081 228.556C3.96354 228.605 3.86637 228.653 3.76928 228.702C-7.6094 234.322 -22.0422 242.762 -32.7643 248.9C-34.9799 250.164 -36.8377 250.825 -37.0406 250.433C-37.2386 250.04 -35.7019 248.74 -33.4807 247.472ZM827.23 58.682C840.268 58.7873 857.179 59.9335 871.942 61.347C887.304 62.7946 900.814 64.5364 907.123 65.4426C913.253 66.3231 920.196 67.1184 928.623 68.0981C930.542 68.3216 932.529 68.5537 934.577 68.797C941.343 69.6007 948.806 70.5283 956.879 71.6767C987.351 76.0278 1006.32 79.1361 1020.65 81.4637C1023.54 81.9371 1026.21 82.3797 1028.71 82.7982C1028.71 82.7989 1028.71 82.7996 1028.72 82.8004C1038.16 84.3899 1044.85 85.5845 1051.51 87.0188C1063.1 89.5312 1072.37 91.6758 1083.3 94.5455C1099.13 98.6429 1120.43 103.471 1135.25 106.666C1136.04 106.835 1136.85 107.007 1137.67 107.182C1148.04 109.413 1160.9 112.232 1179.94 117.32C1195.31 121.428 1209.65 125.902 1221.2 129.745C1224.62 130.884 1228.01 132.034 1231.16 133.116C1239.16 135.864 1246.09 138.336 1252.63 140.627C1293.68 155.087 1317.24 165.922 1331.07 172.501C1342.32 177.901 1348.13 181.149 1352.32 183.477C1353.57 184.172 1354.73 184.823 1355.85 185.432C1365.79 190.881 1374.16 195.357 1385.02 201.416C1387.36 202.727 1389.76 204.086 1392.22 205.502C1400.71 210.378 1407.18 213.987 1411.96 216.596C1414.13 217.783 1416.18 218.901 1418 219.9C1418.03 219.918 1418.07 219.937 1418.1 219.955C1418.36 220.096 1418.61 220.236 1418.86 220.374C1419.05 220.478 1419.24 220.581 1419.43 220.685C1419.51 220.721 1419.58 220.755 1419.63 220.78C1419.67 220.8 1419.7 220.815 1419.72 220.825C1419.72 220.827 1419.73 220.828 1419.73 220.83C1420.1 221.011 1420.41 221.178 1420.47 221.213C1420.58 221.272 1420.68 221.327 1420.73 221.355C1420.99 221.501 1421.32 221.693 1421.54 221.821C1422.11 222.151 1423.1 222.727 1424.59 223.614C1425.9 224.371 1427.16 225.08 1428.71 225.962C1428.8 226.017 1428.9 226.072 1429 226.128C1430.56 227.019 1432.51 228.143 1434.81 229.503C1436.91 230.747 1438.6 232.18 1438.63 232.72C1438.67 233.259 1437.06 232.707 1434.97 231.471C1432.81 230.19 1431.06 229.174 1429.44 228.242C1429.33 228.183 1429.23 228.124 1429.13 228.065C1427.47 227.117 1426.04 226.305 1424.4 225.354C1423.86 225.039 1423.29 224.711 1422.77 224.403C1421.81 223.857 1420.71 223.243 1419.38 222.508C1419.11 222.36 1418.84 222.207 1418.55 222.051C1416.73 221.05 1414.59 219.878 1412.13 218.524C1406.81 215.612 1399.63 211.6 1390.48 206.357C1388.12 205.006 1385.8 203.693 1383.5 202.407C1372.54 196.309 1363.64 191.552 1353.01 185.77C1351.65 185.026 1350.35 184.297 1348.94 183.517C1344.77 181.219 1339.67 178.404 1329.39 173.478C1316.18 167.223 1293.26 156.652 1252.51 142.276C1245.62 139.859 1238.26 137.236 1230.12 134.444C1227.04 133.386 1223.76 132.278 1220.56 131.217C1209.19 127.436 1195.37 123.122 1180.5 119.136C1161.98 114.171 1149.38 111.381 1139.13 109.165C1138.77 109.088 1138.41 109.012 1138.05 108.935C1137.61 108.84 1137.17 108.745 1136.73 108.651C1121.05 105.25 1098.22 100.077 1080.91 95.6163C1070.44 92.8852 1061.57 90.837 1050.04 88.3469C1044.23 87.1018 1038.56 86.0843 1029.32 84.5222C1026.74 84.0868 1023.89 83.6114 1020.71 83.0892C1006.15 80.7212 986.874 77.5652 956.117 73.1834C948.3 72.0745 941.169 71.1878 934.449 70.389C932.361 70.1409 930.306 69.9001 928.288 69.6653C919.81 68.6799 912.12 67.8064 905.011 66.7949C899.145 65.9594 886.067 64.2795 871.129 62.8774C856.622 61.4944 840.951 60.4616 829.53 60.356C828.344 60.3445 827.147 60.3327 825.95 60.3225C815.694 60.2365 805.673 60.2612 797.281 60.7179C776.733 62.5557 748.539 62.522 718.598 62.5485C693.293 62.5497 668.359 62.6936 647.749 63.4209C647.167 63.4411 646.585 63.4616 646.003 63.4824C594.763 65.3253 557.511 69.262 545.092 70.5253C544.51 70.586 543.98 70.6417 543.504 70.6917C543.08 70.7363 542.693 70.778 542.343 70.8149C537.128 71.3657 532.545 71.9251 527.766 72.5275C527.505 72.5605 527.245 72.5935 526.984 72.6266C521.939 73.2659 516.667 73.9502 510.474 74.7148C487.217 77.5957 468.583 80.4479 452.132 83.1692C449.099 83.6722 446.161 84.1673 443.308 84.6574C443.3 84.6588 443.291 84.6602 443.283 84.6616C430.792 86.809 419.807 88.8379 409.185 90.8424C390.09 94.4588 377.179 97.301 367.171 99.5718C364.044 100.284 361.177 100.951 358.483 101.584C352.699 102.945 347.523 104.193 342.174 105.464C332.116 107.857 323.164 110.157 314.21 112.53C313.4 112.745 312.591 112.959 311.784 113.174C301.942 115.799 292.417 118.431 282.391 121.194C279.997 121.854 277.928 122.059 277.759 121.649C277.594 121.238 279.39 120.366 281.785 119.705C291.547 117.014 300.828 114.445 310.671 111.815C311.482 111.598 312.297 111.38 313.116 111.163C322.098 108.778 331.184 106.441 341.441 103.998C346.589 102.773 351.529 101.581 357.186 100.246C359.912 99.603 362.857 98.9156 366.155 98.1629C376.31 95.8537 389.424 92.9622 408.712 89.3072C419.21 87.3252 430.082 85.3149 442.567 83.1647C445.439 82.6705 448.406 82.168 451.478 81.6577C468.004 78.92 486.726 76.0502 510.145 73.1471C516.002 72.4238 521 71.7728 526.026 71.1334C526.308 71.0978 526.59 71.0622 526.872 71.0267C531.611 70.427 536.45 69.8325 541.964 69.2495C542.712 69.1705 543.614 69.0764 544.721 68.9608C557.167 67.6933 594.607 63.7303 646.082 61.8833C646.241 61.8778 646.401 61.8724 646.56 61.867C681.364 60.6835 700.375 60.784 715.313 60.3217C716.434 60.2897 717.528 60.2611 718.598 60.2353C728.769 59.9939 736.516 59.9911 742.955 60.0299C744.312 60.0384 745.595 60.0476 746.816 60.0584C752.092 60.1058 756.236 60.1595 760.365 60.1309C772.656 60.046 782.164 59.774 793.123 59.1428C802.495 58.6114 813.708 58.585 823.634 58.6521C823.649 58.6522 823.664 58.6523 823.68 58.6525C824.887 58.6616 826.073 58.672 827.23 58.682ZM1464.57 247.718C1466.56 249.114 1467.88 250.495 1467.62 250.843C1467.34 251.189 1465.58 250.371 1463.59 248.978C1458.69 245.55 1454.13 242.449 1449.25 239.22C1447.21 237.864 1445.69 236.456 1445.95 236.099C1446.21 235.742 1448.15 236.576 1450.2 237.935C1455.09 241.168 1459.67 244.286 1464.57 247.718ZM817.382 50.2339C819.756 50.2589 822.067 50.6556 822.612 51.1155C823.133 51.574 821.6 51.9163 819.248 51.8897C817.999 51.8754 815.944 51.8604 813.168 51.8475C798.115 51.7679 762.027 51.7833 718.598 52.8063C704.107 53.1377 689.039 53.6017 673.958 54.1659C668.816 54.3574 664.124 54.559 659.725 54.7646C640.934 55.7074 625.889 57.3372 590.205 59.8941C439.639 71.0626 290.185 100.668 149.285 154.959C108.678 170.64 68.807 187.703 29.6648 206.794C-3.30056 222.25 -61.3035 254.695 -73.8563 263.774C-75.0861 264.59 -76.0735 265.15 -76.5928 265.327C-76.6493 265.321 -77.0568 265.552 -77.2309 265.621C-77.4301 265.707 -77.5499 265.734 -77.6318 265.733C-77.791 265.726 -77.8216 265.619 -77.8905 265.533C-77.9492 265.44 -78.0388 265.375 -77.9695 265.212C-77.9327 265.128 -77.8505 265.016 -77.6802 264.848C-77.595 264.763 -77.4876 264.665 -77.3523 264.548C-77.2621 264.463 -77.2523 264.434 -77.1936 264.372C-76.8304 263.952 -75.8508 263.183 -74.6824 262.409C-62.1222 253.332 -4.27282 220.964 28.63 205.523C67.7072 186.449 107.583 169.367 148.128 153.691C289.264 99.2227 439.011 67.5479 590.137 56.3606C625.557 53.8283 640.13 54.1524 658.851 53.2033C663.269 52.995 667.961 52.7896 673.193 52.593C688.549 52.012 703.884 51.5342 718.598 51.1936C760.882 50.1886 795.902 50.1301 811.039 50.1958C813.91 50.2064 816.058 50.22 817.382 50.2339ZM931.676 59.9204C959.078 62.7889 997.345 68.1535 1031.44 74.3088C1047.48 77.1741 1063.22 80.2826 1075.16 82.7564C1093.59 86.5761 1105.95 89.7755 1117.23 92.8025C1117.35 92.8353 1117.48 92.8681 1117.6 92.9009C1128.96 95.9738 1141.07 99.2825 1159.47 104.268C1178.8 109.502 1204.82 116.772 1230.89 125.173C1230.91 125.18 1230.93 125.187 1230.95 125.194C1256.92 133.509 1283.13 142.233 1301.84 149.93C1366.51 176.584 1403.33 199.188 1421.71 210.729C1453.61 231.112 1490.86 253.778 1517.89 281.492C1520.39 284.562 1514.97 280.773 1509.18 275.316C1508.97 275.119 1508.75 274.919 1508.53 274.715C1506.21 272.596 1505.03 271.494 1502.25 269.114C1498.55 266.006 1495.85 263.869 1493.1 261.714C1487 255.99 1437.75 221.95 1419.37 211.171C1401.94 200.305 1365.16 179.851 1300.33 153.126C1282.05 145.61 1257.05 135.248 1231 126.892C1230.93 126.868 1230.86 126.845 1230.79 126.822C1204.93 118.476 1178.71 111.129 1159.08 105.817C1140.05 100.661 1127.32 97.1944 1115.91 94.1189C1115.8 94.0886 1115.69 94.0583 1115.58 94.028C1104.39 91.0387 1092.56 87.9917 1074.87 84.3238C1062.66 81.796 1046.79 78.6675 1030.64 75.7891C996.742 69.6827 959.019 64.3964 931.893 61.5486C929.43 61.2854 927.371 60.712 927.309 60.2623C927.249 59.8132 929.21 59.6578 931.676 59.9204ZM933.342 50.1068C1010.76 56.9131 1088.43 71.3895 1161.71 92.981C1181.45 98.3117 1208.08 106.153 1234.51 115.092C1234.82 115.194 1235.12 115.297 1235.42 115.4C1261.5 124.185 1287.26 134.05 1305.65 141.627C1370.85 168.517 1408.61 190.741 1427.22 202.439C1444.26 213.393 1449.31 216.77 1456.26 221.217C1456.47 221.346 1456.66 221.476 1456.86 221.606C1456.88 221.613 1456.89 221.621 1456.91 221.628C1457.17 221.774 1457.38 221.9 1457.49 221.966C1457.72 222.1 1457.9 222.213 1457.97 222.255C1458.13 222.352 1458.25 222.436 1458.3 222.466C1458.49 222.588 1458.7 222.728 1458.84 222.818C1460.13 223.666 1464.06 226.307 1466.99 228.36C1470.03 230.487 1472.48 232.275 1474.74 233.96C1474.98 234.134 1475.21 234.307 1475.44 234.48C1477.57 236.068 1479.46 237.503 1482.98 240.159C1485.02 241.703 1486.18 243.053 1485.68 243.228C1485.17 243.4 1483.19 242.326 1481.13 240.775C1477.55 238.085 1475.47 236.511 1473.32 234.912C1473.08 234.74 1472.85 234.567 1472.62 234.393C1470.45 232.786 1468.16 231.132 1465.6 229.344C1461.7 226.666 1458.61 224.64 1455.73 222.771C1448.47 218.131 1442.87 214.38 1424.87 202.872C1407.23 191.875 1370.59 170.165 1305.08 143.113C1286.67 135.533 1260.92 125.672 1234.9 116.907C1234.59 116.802 1234.28 116.697 1233.97 116.592C1207.56 107.662 1180.99 99.8406 1161.32 94.5279C1086.55 74.293 1010.99 61.5627 933.567 51.736C918.95 50.1726 906.287 48.9589 894.104 47.8951C858.128 44.7889 830.611 43.3125 804.766 43.1804C799.168 43.1642 783.709 42.6951 762.186 42.4733C755.896 42.4091 748.954 42.3633 741.385 42.3578C734.333 42.3528 726.733 42.382 718.598 42.4635C705.405 42.5963 691.115 42.8964 675.968 43.441C670.909 43.6235 666.099 43.8218 661.685 44.0221C642.719 44.9473 627.896 45.596 591.867 48.1214C547.394 50.9671 473.462 59.7762 434.085 66.5616C414.709 69.7253 403.14 71.8384 395.429 73.2142C393.254 73.6059 391.346 73.9507 389.599 74.27C385.045 75.103 381.505 75.7645 376.749 76.7115C343.062 83.5226 319.763 89.1322 281.807 99.7474C279.46 100.411 277.351 100.641 277.025 100.275C276.742 99.8969 278.409 99.0459 280.748 98.3834C318.754 87.7356 342.471 82.0082 376.643 75.1053C381.623 74.1141 385.388 73.4137 390.037 72.5652C391.762 72.2508 393.608 71.9174 395.675 71.5459C403.272 70.1931 414.719 68.1047 434.02 64.9554C473.365 58.1802 547.261 49.3798 591.64 46.5375C627.341 44.0327 641.908 43.3905 660.807 42.4599C665.238 42.2569 670.046 42.0548 675.193 41.8674C690.629 41.3058 705.187 40.9979 718.598 40.863C726.501 40.7838 733.893 40.7539 740.761 40.7568C748.328 40.7601 755.263 40.8033 761.536 40.8653C783.475 41.0875 798.071 41.5323 802.857 41.5375C829.56 41.6413 858.387 43.1935 894.704 46.3439C906.758 47.3996 919.173 48.5944 933.342 50.1068ZM146.55 142.886C148.867 141.995 151.023 141.559 151.342 141.91C151.661 142.261 150.023 143.266 147.705 144.156C135.525 148.839 126.964 152.301 120.064 155.12C107.611 160.234 101.529 162.835 92.449 166.636C69.0781 176.451 47.0134 186.497 27.0302 196.207C-5.57304 212.007 -32.1028 226.849 -45.6971 234.715C-47.8619 235.963 -49.6786 236.61 -49.8838 236.22C-50.0833 235.827 -48.5917 234.543 -46.4216 233.292C-32.9056 225.474 -6.50801 210.702 25.9929 194.939C46.0365 185.192 68.1663 175.105 91.722 165.21C100.519 161.527 106.326 159.042 118.471 154.044C125.332 151.235 134.072 147.689 146.55 142.886Z" fill="#6F48F1"/>
</svg>
