<svg width="1440" height="2309" viewBox="0 0 1440 2309" fill="none" xmlns="http://www.w3.org/2000/svg">
<g clip-path="url(#clip0_356_788)">
<rect width="1440" height="2309" fill="white"/>
<path d="M1029.47 531.857C1030.18 452.243 986.364 358.855 931.224 304.799C930.47 304.017 929.712 303.236 928.948 302.458C914.993 288.256 900.11 275.08 882.491 261.766C872.268 254.049 860.834 246.323 848.532 239.005C844.273 236.471 839.845 233.943 835.254 231.441C794.843 209.616 741.495 188.239 665.777 176.94C404.563 136.229 218.928 285.891 192.508 342.605C152.218 400.712 132.23 475.59 138.925 556.957C146.445 621.609 148.91 703.311 216.494 768.374C230.596 780.386 248.035 789.65 266.688 794.645C281.826 798.767 294.466 799.889 294.768 800.6C295.087 801.166 282.779 801.173 267.339 797.142C248.761 792.342 231.28 783.411 217.045 771.75C216.979 771.696 216.913 771.642 216.847 771.589C145.743 704.762 144.481 621.758 136.683 557.13C130.206 477.315 148.838 404.694 186.736 347.156C212.096 287.71 403.397 131.042 671.936 175.586C748.64 187.809 802.476 210.277 843.101 233.214C847.558 235.752 851.836 238.302 855.935 240.846C856.031 240.906 856.128 240.966 856.224 241.026C866.248 247.256 875.493 253.641 883.845 259.945C903.594 274.89 919.323 289.112 934.185 304.626C934.632 305.093 935.077 305.561 935.52 306.029C990.988 361.696 1032.5 454.682 1031.73 532.35C1031.97 547.132 1030.47 558.79 1029.88 558.65C1029.26 558.376 1029.75 546.496 1029.47 531.857ZM1651.05 1792.86C1685.43 1728.16 1717.87 1634.44 1726.19 1548.48C1736.09 1461.92 1722.93 1382.87 1713.9 1347.06C1705.38 1311.77 1692.46 1273.16 1670.26 1230.34C1665.16 1220.55 1659.5 1210.46 1653.35 1200.38C1633.01 1166.97 1606.25 1131.84 1571.99 1098.57C1441.67 977.283 1320.02 955.738 1242.12 940.172C1225.83 937.395 1210.28 935.254 1195.45 933.573C1195.42 933.57 1195.4 933.567 1195.37 933.564C1168.11 930.494 1144.09 928.984 1121.37 928.176C1099.15 927.404 1079.73 927.256 1061.55 927.438C993.756 928.501 939.995 933.547 874.599 947.89C783.89 965.144 663.033 1028.81 609.418 1098.29C606.359 1101.9 603.309 1105.64 600.309 1109.45C562.731 1158.23 521.495 1229.28 514.529 1344.21C509.911 1439.54 532.639 1521.56 562.881 1587.82C571.641 1606.86 581.075 1624.51 590.987 1640.97C616.044 1682.47 643.851 1716.33 673.346 1744.73C707.478 1777.54 743.673 1802.7 779.504 1821.18C935.328 1902.94 1058.85 1892.48 1128.64 1865.98C1195.88 1840.49 1225.92 1811.03 1247.12 1792.03C1253.45 1786.02 1258.84 1780.51 1263.77 1775.17C1307.28 1727.32 1337.33 1674.34 1358.28 1606.2C1362.82 1590.99 1366.76 1574.93 1369.81 1557.98C1379.92 1501.04 1376.35 1456.4 1367.32 1422.93C1367.31 1422.91 1367.31 1422.89 1367.3 1422.87C1363.28 1408.16 1358.65 1395.83 1353.42 1384.34C1353.32 1384.13 1353.22 1383.92 1353.13 1383.7C1352.39 1382.1 1351.64 1380.53 1350.89 1378.99C1350.32 1377.82 1349.74 1376.67 1349.16 1375.52C1348.92 1375.07 1348.71 1374.67 1348.55 1374.37C1348.43 1374.14 1348.33 1373.95 1348.27 1373.83C1348.25 1373.8 1348.24 1373.78 1348.23 1373.76C1347.05 1371.55 1346.02 1369.67 1345.81 1369.29C1345.44 1368.62 1345.11 1368.03 1344.95 1367.72C1344.06 1366.13 1342.9 1364.09 1342.12 1362.76C1340.13 1359.39 1336.51 1353.21 1330.24 1344.5C1324.68 1336.87 1318.96 1329.86 1311.19 1321.73C1310.7 1321.21 1310.2 1320.7 1309.7 1320.19C1301.98 1312.32 1292.47 1303.63 1279.4 1294.21C1267.53 1285.62 1255.99 1278.76 1254.57 1277.28C1253.11 1275.83 1262.6 1280.05 1274.84 1288.28C1287.5 1296.85 1296.85 1304.71 1304.94 1312.32C1305.45 1312.8 1305.96 1313.29 1306.47 1313.77C1314.83 1321.84 1322.21 1330.09 1329.33 1339.48C1331.74 1342.65 1334.13 1346.01 1336.24 1349.14C1340.1 1354.84 1344.25 1361.44 1348.69 1369.7C1349.59 1371.36 1350.5 1373.12 1351.38 1374.84C1357.07 1386.06 1362.89 1399.94 1367.58 1415.61C1368.23 1417.8 1368.88 1420.04 1369.5 1422.35C1379.37 1458.96 1382.11 1506.77 1370.77 1565.11C1367.55 1581.47 1363.55 1596.95 1358.92 1611.83C1337.14 1680.33 1304.28 1737.48 1255.81 1786.84C1249.13 1793.55 1242.43 1799.78 1235.05 1806.1C1212.82 1824.08 1186 1847.91 1122.83 1870.4C1055.15 1894.24 934.137 1904.65 778.474 1823.18C743.178 1804.97 707.438 1780.28 673.593 1748.08C642.296 1718.32 612.671 1681.89 587.384 1639.32C577.73 1623.07 568.697 1605.92 560.468 1587.95C530.671 1522.37 508.726 1442.72 511.988 1350.24C517.393 1237.31 555.398 1167 591.731 1116.9C593.022 1115.16 594.366 1113.38 595.65 1111.7C597.266 1109.6 598.895 1107.52 600.535 1105.47C655.761 1029.05 785.993 960.124 886.081 943.033C949.311 930.3 1000.84 925.77 1068.18 925.125C1084.28 925.063 1101.26 925.236 1121.45 925.933C1141.69 926.651 1164.21 927.958 1190.47 930.76C1205.83 932.41 1222.68 934.623 1240.7 937.655C1320.21 953.366 1444.23 975.192 1575.95 1099.3C1608.99 1131.83 1634.76 1165.63 1655.12 1198.96C1661.42 1209.28 1667.31 1219.77 1672.68 1230.13C1695.07 1273.33 1709.75 1316.6 1718.7 1357.73C1726.42 1391.35 1738.17 1468.23 1728 1552.59C1719.04 1637.65 1688.33 1724.19 1659.24 1781.82C1656.24 1787.89 1653.13 1793.96 1649.99 1799.89C1622.68 1851.76 1587.98 1900.02 1556.74 1936.84C1495.57 2012.14 1389.88 2098.63 1259.88 2154.08C1104.37 2223.08 923.956 2257.15 783.479 2258.19C780.09 2258.25 776.705 2258.29 773.323 2258.32C474.078 2260.81 274.481 2151.02 212.756 2115.55C209.792 2113.83 207.106 2112.26 204.7 2110.83C202.551 2109.56 200.613 2108.41 198.909 2107.38C173.126 2091.84 151.225 2077.31 128.562 2060.89C127.332 2060 126.104 2059.1 124.88 2058.21C101.273 2040.86 77.0109 2021.51 50.1924 1996.87C-49.7023 1904.65 -109.641 1807.99 -146.832 1719.78C-153.702 1703.43 -159.842 1687.16 -165.253 1671.24C-165.269 1671.19 -165.285 1671.14 -165.301 1671.1C-189.041 1600.97 -199.972 1535.58 -203.522 1473.6C-205.214 1443.09 -205.025 1416.29 -203.788 1390.58C-200.359 1321.21 -192.768 1268.5 -184.125 1225.72C-180.465 1207.68 -176.383 1190.59 -172.153 1175.02C-162.883 1141.05 -152.588 1111.82 -139.657 1082.69C-115.178 1027.76 -83.813 980.756 -45.1837 941.45C-41.7472 937.954 -38.351 934.612 -34.7343 931.172C8.54681 889.949 59.7712 858.701 116.829 835.284C130.069 829.828 141.394 826.291 141.872 826.766C142.36 827.261 131.879 831.544 118.682 836.952C63.4919 859.529 13.3836 889.367 -30.0114 929.82C-33.607 933.17 -37.1953 936.634 -40.6242 940.057C-79.2703 978.553 -111.725 1026.02 -136.698 1081.57C-149.272 1109.66 -159.07 1136.78 -168.486 1170.19C-172.799 1185.58 -177.231 1203.53 -181.108 1222.22C-190.16 1265.97 -198.038 1319.8 -201.544 1390.69C-202.766 1416.08 -202.958 1442.48 -201.337 1472.43C-197.91 1533.46 -187.404 1597.91 -164.024 1667.85C-158.668 1683.81 -152.537 1700.24 -145.658 1716.76C-108.774 1805.03 -48.9598 1902.12 51.1407 1994.69C76.3936 2017.92 99.2561 2036.39 122.591 2053.72C123.906 2054.69 125.224 2055.67 126.546 2056.63C148.853 2072.95 171.87 2088.42 199.029 2104.83C202.625 2107 207.234 2109.75 212.829 2113C274.425 2148.51 474.346 2258.78 774.151 2256.06C775.075 2256.06 776 2256.05 776.924 2256.04C976.132 2251.38 1084.84 2213.94 1164.42 2187.78C1201.51 2174.74 1231.52 2162.54 1258.48 2150.83C1277.82 2142.41 1294.61 2134.38 1309.67 2126.74C1316.52 2123.27 1323.1 2119.82 1329.4 2116.42C1356.52 2101.76 1376.51 2089.5 1396.88 2075.93C1457.03 2035.16 1496.51 1999.95 1538.99 1953.34C1574.87 1913.85 1613.99 1860.92 1641.52 1810.63C1641.56 1810.56 1641.6 1810.48 1641.65 1810.41C1644.93 1804.48 1648.07 1798.61 1651.05 1792.86ZM1081.04 1243.46C1066.59 1244.32 1055.01 1245.62 1055.09 1244.97C1055.09 1244.36 1066.87 1242.03 1081.43 1241.19C1116 1239.18 1150.78 1242.2 1184.47 1250.55C1198.61 1254.04 1209.54 1258.46 1209.21 1258.98C1208.86 1259.53 1197.46 1256.04 1183.42 1252.6C1149.96 1244.37 1115.38 1241.41 1081.04 1243.46ZM1612.01 1837.41C1619.18 1826.06 1626.44 1814.51 1628.49 1812.18C1630.53 1809.83 1626.88 1817.52 1619.8 1829.18C1616.01 1835.4 1609.97 1845.23 1601.09 1858.41C1560.36 1921.02 1447.38 2058.08 1254.28 2141.11C1158.51 2183.35 1048.28 2217.37 933.067 2234.21C904.243 2238.46 877.868 2241.32 853.205 2243.31C747.051 2248.78 658.207 2258.61 459.184 2208.3C96.2544 2117.7 -222.514 1779.6 -192.528 1391.14C-184.069 1233.35 -150.19 1065.35 -35.0846 949.408C79.9752 831.231 250.51 810.083 401.226 771.216L402.281 778.878C340.76 786.062 258.511 804.894 210.801 746.87C165.562 693.148 156.289 622.385 150.107 556.097C147.755 525.789 148.691 496.579 153.916 466.644C206.777 199.456 543.152 134.648 768.43 212.646C802.72 224.738 841.057 242.538 876.926 269.252C963.422 329.621 1027.96 447.421 1019.38 552.91C1016.92 659.555 940.178 732.272 899.274 729.685C884.73 731.388 873.24 728.414 873.478 727.906C873.786 727.264 885.424 729.152 899.527 727.395C939.052 729.82 1014.75 658.377 1017.16 552.461C1025.56 447.778 961.407 330.951 875.587 271.053C840.599 244.993 803.232 227.472 769.714 215.485C545.88 137.085 212.24 200.113 156.776 463.503C151.051 494.143 149.914 524.656 152.361 555.924C158.494 621.994 167.968 692.502 212.535 745.289C259.42 802.153 339.546 783.77 402.281 776.37L401.904 773.631C250.819 812.7 81.1398 834.117 -32.8464 951.572C-146.912 1066.74 -180.496 1233.92 -188.675 1391.33C-217.856 1778.4 100.099 2113.89 461.598 2203.81C657.711 2253.11 742.722 2246.43 848.385 2241.43C873.2 2239.52 899.474 2236.77 928.653 2232.58C1045.32 2215.94 1156.87 2181.6 1253.38 2139.02C1439.43 2058.87 1550.29 1929.07 1592.07 1867.45C1601.47 1854.02 1608.01 1843.76 1612.01 1837.41ZM1654.05 1225.34C1585.42 1083.4 1381.02 958.167 1186.99 945.144C1165.22 942.801 1143.13 941.256 1120.95 940.467C1051.25 937.942 988.772 941.88 936.057 950.057C829.087 967.314 764.646 995.179 707.474 1030.53C706.867 1030.92 706.261 1031.3 705.657 1031.69C650.629 1068.59 593.594 1114.78 551.592 1217.39C508.372 1320.03 513.15 1487.22 592.117 1622.14C592.176 1622.25 592.236 1622.35 592.296 1622.46C638.392 1704.21 708.995 1772.53 784.933 1810.67C833.888 1835.69 882.016 1853.19 925.095 1862.81C1106.95 1909.61 1252.07 1797.36 1305.14 1693.23C1363.3 1587.5 1369.26 1489.43 1353.5 1426.63C1350.7 1415.81 1347.49 1406.16 1343.98 1397.3C1299.35 1273.9 1133.76 1225.94 1008.22 1268.96C964.145 1286.12 917.618 1319.56 914.042 1370.28C910.798 1421.31 956.975 1458.97 1000.91 1470.62C1025.67 1475.81 980.621 1474.67 944.666 1443.54C943.395 1442.42 942.157 1441.28 940.955 1440.12C929.685 1428.96 920.749 1417.28 914.819 1398.22C906.79 1370.16 914.172 1347.55 923.551 1330.99C930.082 1317.71 957.803 1284.94 1007.24 1266.48C1066.66 1244.2 1151.5 1244.99 1221.84 1273.78C1293.93 1301.39 1337.37 1365.34 1349.62 1405.88C1351.83 1412.24 1353.81 1418.69 1355.73 1426.03C1370.88 1485.62 1367.99 1581.65 1311.5 1689.45C1260.82 1794.83 1112.84 1916.76 922.916 1867.41C879.8 1857.67 831.833 1839.75 783.082 1814.25C708.297 1775.76 638.77 1708.12 591.971 1626.42C591.758 1626.05 591.545 1625.68 591.333 1625.31C511.921 1491.32 505.193 1321.82 549.444 1216.71C593.221 1109.65 654.334 1062.25 711.005 1025.64C711.573 1025.29 712.141 1024.94 712.711 1024.6C770.288 990.356 832.418 964.575 935.573 947.861C988.95 939.577 1051.54 935.709 1121.03 938.221C1144.28 939.047 1167.4 940.703 1190.15 943.228C1383.94 957.17 1585.75 1081.53 1654.93 1222.32C1661.75 1234.45 1666.45 1245.24 1666.17 1246.05C1665.86 1246.87 1660.76 1237.44 1654.05 1225.34ZM1640.3 1229.41C1539.35 1047.36 1325.85 960.867 1120.4 956.45C903.016 945.561 650.353 1010.69 568.136 1219.48C524.954 1318.21 528.347 1483.49 605.934 1615.95C606.782 1617.45 607.636 1618.94 608.499 1620.42C653.281 1698.2 719.994 1762.4 791.106 1798.72C839.992 1824.1 887.769 1841.53 930.036 1850.75C1105.22 1894.41 1241.54 1787.78 1293.37 1686.92C1349.55 1584.67 1354.91 1488.9 1339.98 1430.24C1337.05 1418.9 1333.59 1408.83 1329.89 1399.84C1281.48 1302.57 1236.86 1299.37 1198.07 1282.12C1196.91 1281.73 1195.73 1281.36 1194.56 1280.99C1194.48 1280.97 1194.41 1280.95 1194.33 1280.92C1192.84 1280.49 1191.6 1280.14 1190.95 1279.95C1189.64 1279.57 1188.56 1279.27 1188.16 1279.16C1187.24 1278.9 1186.46 1278.68 1186.18 1278.61C1185.05 1278.29 1183.76 1277.94 1182.92 1277.72C1175.2 1275.47 1150.43 1270.03 1130.39 1268.45C1109.9 1266.65 1095.13 1266.77 1079.71 1267.67C1078.13 1267.77 1076.56 1267.88 1075.01 1268.01C1061.15 1269.2 1046.01 1270.82 1025.36 1276.73C1020.51 1278.16 1016.02 1279.66 1012.88 1280.74C1007.61 1282.57 1004.79 1283.47 1005.52 1282.74C1006.08 1282.2 1008.5 1280.89 1012.28 1279.21C1016.63 1277.24 1023.23 1274.85 1030.38 1272.99C1052.53 1267.34 1068.91 1266.04 1082.96 1265.21C1084.51 1265.13 1086.07 1265.06 1087.63 1265C1102.53 1264.52 1115.66 1264.73 1133.95 1266.52C1160.44 1269.26 1179.71 1273.96 1196.84 1279.35C1237.16 1296.88 1288.75 1302.18 1335.39 1407.69C1337.88 1414.56 1340.08 1421.57 1342.18 1429.65C1356.4 1485.41 1353.25 1578.7 1298.55 1682.17C1248.63 1783.5 1111.39 1898.07 929.691 1852.97C887.147 1843.71 839.133 1826.18 790.076 1800.71C718.472 1764.14 651.44 1699.54 606.507 1621.46C605.615 1619.93 604.734 1618.39 603.859 1616.85C525.978 1483.7 522.713 1317.91 566.001 1218.77C649.478 1005.2 904.571 941.412 1120.56 951.779C1325.16 956.112 1539.8 1041.92 1641.18 1226.4C1680.03 1294.75 1698.91 1365.76 1705.35 1432.05C1721.22 1629.44 1648.9 1777.78 1562.27 1891.21C1542.53 1915.94 1489.92 1982.61 1390.04 2050.57C1360.51 2070.58 1327.25 2090.34 1289.72 2108.93C1276.69 2115.39 1263 2121.77 1248.63 2128.02C1163.21 2165.16 1060.59 2198.94 943.655 2217.44C915.334 2221.92 889.254 2225.04 864.846 2227.28C760.398 2233.79 673.841 2243.14 477.421 2196.27C227.347 2153.78 -111.848 1859.16 -149.55 1630.05C-178.736 1523.07 -176.742 1458.85 -176.581 1415.24C-176.388 1406.9 -176.074 1399.2 -175.688 1391.97C-175.498 1388.42 -175.301 1385.01 -175.099 1381.71C-173.432 1355.32 -171.675 1335.48 -168.505 1309.03C-141.929 1125.61 -94.9951 971.927 101.862 873.913C114.092 868.098 125.327 863.993 126.485 864.177C127.677 864.371 118.411 868.674 106.154 874.385C-91.0365 970.382 -139.989 1124.75 -166.42 1310.5C-169.709 1338.2 -171.496 1359.15 -173.113 1386.21C-173.225 1388.13 -173.334 1390.09 -173.44 1392.08C-173.879 1400.29 -174.217 1408.97 -174.397 1418.4C-174.366 1461.21 -176.192 1524.45 -147.076 1630.54C-109.205 1858.37 228.624 2151.51 477.395 2193.95C671.508 2240.37 756.1 2231.54 860.115 2225.44C884.475 2223.3 910.753 2220.26 939.226 2215.85C1057.65 2197.53 1161.59 2163.42 1247.74 2125.95C1260.92 2120.22 1273.52 2114.38 1285.56 2108.47C1322.92 2090.14 1356.11 2070.63 1385.61 2050.84C1487.39 1981.93 1536.38 1918.9 1553.67 1898.35C1645.18 1782.8 1720.11 1628.17 1702.86 1429.76C1696.23 1364.49 1677.44 1295.41 1640.3 1229.41ZM169.459 478.587C167.486 492.054 166.372 503.265 165.675 504.249C165.037 505.052 164.931 495.363 166.751 481.698C176.471 411.163 205.604 366.067 230.755 335.703C279.992 280.418 313.791 263.135 362.393 240.191C491.286 184.819 635.946 186.025 751.332 222.731C795.133 236.84 834.953 256.623 868.017 281.235C984.638 365.608 1011.02 490.409 1004.86 554.414C1004.03 567.954 1001.75 578.434 1001.18 578.227C1000.58 577.945 1001.86 567.2 1002.65 553.789C1008.59 490.53 982.608 366.975 866.678 283.035C834.359 258.978 795.473 239.519 752.644 225.516C637.848 188.435 493.031 186.737 363.884 241.991C316.928 264.081 285.131 279.975 236.27 332.719C210.788 362.381 180.254 406.763 169.459 478.587Z" fill="#5135ED"/>
</g>
<defs>
<clipPath id="clip0_356_788">
<rect width="1440" height="2309" fill="white"/>
</clipPath>
</defs>
</svg>
