<svg width="257" height="109" viewBox="0 0 257 109" fill="none" xmlns="http://www.w3.org/2000/svg">
<path d="M37.2063 53.9454C32.7657 53.3912 30.5384 50.0724 30.5188 45.7484C30.5034 42.5433 30.4996 39.3375 30.5073 36.1309C30.5073 36.093 30.5261 36.0741 30.5638 36.0741H37.3137C37.3446 36.0741 37.3742 36.0863 37.3961 36.108C37.4179 36.1298 37.4302 36.1593 37.4302 36.19C37.4295 38.8887 37.4279 41.5944 37.4256 44.307C37.4233 45.6893 37.7926 47.1248 39.4082 47.3335C41.1889 47.562 41.7878 46.2366 41.9078 44.6758C42.0148 43.2874 42.0163 41.8982 41.9124 40.5083C41.7555 38.4048 40.748 36.7211 39.4971 35.0965C37.9038 33.0279 36.3027 30.965 34.694 28.9079C32.4587 26.0472 31.0924 22.9813 30.9273 19.324C30.7231 14.7889 30.6146 9.32616 35.7927 7.56013C36.6428 7.27024 37.5726 7.09901 38.5819 7.04644C40.2914 6.95676 41.7532 6.99696 42.9672 7.16703C47.1459 7.75378 48.675 10.6666 48.7004 14.6231C48.7173 17.2553 48.7181 19.8883 48.7027 22.5221C48.7027 22.56 48.6838 22.5789 48.6461 22.5789L42.1028 22.5998C42.0719 22.5998 42.0423 22.5875 42.0204 22.5655C41.9986 22.5435 41.9863 22.5138 41.9863 22.4827C41.9871 20.3877 41.989 18.2796 41.9921 16.1584C41.9944 14.9408 41.8767 13.4438 40.3441 13.2606C38.5162 13.0426 38.0269 14.2671 37.9865 15.8615C37.9634 16.7529 37.9849 17.6438 38.0511 18.5343C38.1988 20.5091 39.1093 22.0861 40.276 23.6214C42.0109 25.905 43.7527 28.1832 45.5014 30.4559C47.4229 32.9548 48.8527 35.4607 49.2289 38.6518C49.4609 40.6208 49.4528 42.7973 49.3247 44.8648C49.035 49.5495 46.7916 53.4944 41.7255 53.9779C40.116 54.1317 38.6096 54.1209 37.2063 53.9454Z" fill="white"/>
<path d="M28.4581 48.3626C28.4958 50.078 28.5019 51.7636 28.4765 53.4195C28.4742 53.5285 28.4192 53.583 28.3115 53.583H21.6193C21.5887 53.583 21.5594 53.5708 21.5377 53.549C21.5161 53.5273 21.5039 53.4978 21.5039 53.4671V33.4354C21.5039 33.4047 21.4918 33.3752 21.4701 33.3534C21.4485 33.3317 21.4191 33.3194 21.3885 33.3194H16.859C16.8281 33.3194 16.7985 33.3317 16.7766 33.3534C16.7547 33.3752 16.7425 33.4047 16.7425 33.4354L16.7448 53.4381C16.7448 53.5347 16.6967 53.583 16.6005 53.583L9.8622 53.5807C9.8145 53.5807 9.79065 53.5567 9.79065 53.5088V7.51892C9.79065 7.48026 9.80988 7.46094 9.84835 7.46094H16.6998C16.7111 7.46094 16.7219 7.46546 16.73 7.4735C16.738 7.48155 16.7425 7.49246 16.7425 7.50384L16.7482 25.8286C16.7482 25.8415 16.7508 25.8544 16.7558 25.8663C16.7608 25.8783 16.7681 25.8891 16.7773 25.8983C16.7865 25.9074 16.7975 25.9147 16.8095 25.9197C16.8215 25.9246 16.8344 25.9272 16.8475 25.9272H21.3885C21.4191 25.9272 21.4485 25.9149 21.4701 25.8932C21.4918 25.8715 21.5039 25.842 21.5039 25.8112V7.53399C21.5039 7.48529 21.5278 7.46094 21.5755 7.46094H28.3969C28.4205 7.46094 28.4431 7.47034 28.4597 7.48709C28.4764 7.50383 28.4858 7.52654 28.4858 7.55022C28.4858 21.0964 28.4858 34.653 28.4858 48.22C28.4858 48.2401 28.4819 48.2586 28.4742 48.2756C28.4627 48.3035 28.4573 48.3325 28.4581 48.3626Z" fill="white"/>
<path d="M58.41 26.2171L65.2384 26.2205C65.2552 26.2205 65.2713 26.2273 65.2832 26.2392C65.2951 26.2512 65.3018 26.2674 65.3018 26.2843L65.2984 33.1977C65.2984 33.2146 65.2917 33.2308 65.2798 33.2428C65.2679 33.2547 65.2517 33.2615 65.2349 33.2615H58.41C58.3932 33.2615 58.3771 33.2682 58.3652 33.2801C58.3532 33.2921 58.3466 33.3083 58.3466 33.3252L58.3454 46.4748C58.3454 46.4917 58.3521 46.508 58.364 46.5199C58.3759 46.5319 58.392 46.5386 58.4089 46.5386H67.5152C67.5321 46.5386 67.5482 46.5453 67.5601 46.5573C67.572 46.5692 67.5787 46.5855 67.5787 46.6024V53.5192C67.5787 53.5362 67.572 53.5524 67.5601 53.5643C67.5482 53.5763 67.5321 53.583 67.5152 53.583H51.4282C51.4114 53.583 51.3952 53.5763 51.3833 53.5643C51.3714 53.5524 51.3647 53.5362 51.3647 53.5192V7.52471C51.3647 7.5078 51.3714 7.49158 51.3833 7.47962C51.3952 7.46766 51.4114 7.46094 51.4282 7.46094H67.169C67.1859 7.46094 67.202 7.46766 67.2139 7.47962C67.2258 7.49158 67.2325 7.5078 67.2325 7.52471V14.0937C67.2325 14.1106 67.2258 14.1268 67.2139 14.1388C67.202 14.1508 67.1859 14.1575 67.169 14.1575H58.41C58.3932 14.1575 58.3771 14.1642 58.3652 14.1762C58.3532 14.1881 58.3466 14.2043 58.3466 14.2213V26.1533C58.3466 26.1617 58.3482 26.1699 58.3514 26.1777C58.3546 26.1854 58.3593 26.1925 58.3652 26.1984C58.371 26.2043 58.378 26.209 58.3857 26.2122C58.3934 26.2154 58.4017 26.2171 58.41 26.2171Z" fill="white"/>
<path d="M81.329 44.9998L80.4219 53.4984C80.4193 53.5217 80.4082 53.5433 80.3908 53.5589C80.3733 53.5746 80.3507 53.5832 80.3273 53.583H74.2687C74.2552 53.5831 74.2419 53.5803 74.2296 53.5748C74.2173 53.5694 74.2063 53.5613 74.1973 53.5512C74.1884 53.5411 74.1817 53.5292 74.1776 53.5163C74.1736 53.5034 74.1724 53.4898 74.174 53.4763L79.7687 7.54443C79.7716 7.52127 79.7828 7.49997 79.8002 7.48457C79.8177 7.46918 79.8401 7.46077 79.8634 7.46094H87.9796C88.0024 7.46101 88.0245 7.46939 88.0416 7.48452C88.0588 7.49965 88.07 7.52052 88.0731 7.54327L94.0324 53.4752C94.0342 53.4886 94.0331 53.5022 94.0293 53.5152C94.0254 53.5282 94.0188 53.5402 94.01 53.5504C94.0011 53.5606 93.9902 53.5688 93.978 53.5744C93.9657 53.58 93.9524 53.583 93.9389 53.583H87.3899C87.3665 53.5832 87.3439 53.5746 87.3264 53.5589C87.3089 53.5433 87.2978 53.5217 87.2952 53.4984L86.3882 44.9975C86.3856 44.9742 86.3745 44.9526 86.357 44.9369C86.3396 44.9213 86.3169 44.9127 86.2935 44.9129L81.4236 44.9152C81.4002 44.9151 81.3776 44.9236 81.3601 44.9393C81.3426 44.9549 81.3315 44.9765 81.329 44.9998ZM82.0306 37.9462C82.0301 37.9513 82.0307 37.9565 82.0324 37.9614C82.034 37.9663 82.0366 37.9708 82.0401 37.9747C82.0436 37.9785 82.0478 37.9815 82.0525 37.9836C82.0573 37.9857 82.0624 37.9868 82.0675 37.9867L85.5896 37.9891C85.5948 37.9891 85.5999 37.988 85.6046 37.9859C85.6093 37.9839 85.6135 37.9808 85.617 37.977C85.6205 37.9732 85.6231 37.9687 85.6248 37.9637C85.6264 37.9588 85.627 37.9536 85.6265 37.9485L83.832 21.3793C83.8305 21.3707 83.826 21.363 83.8194 21.3574C83.8127 21.3518 83.8043 21.3487 83.7957 21.3487C83.787 21.3487 83.7786 21.3518 83.772 21.3574C83.7653 21.363 83.7609 21.3707 83.7593 21.3793L82.0306 37.9462Z" fill="white"/>
<path d="M102.185 33.016C102.136 33.0183 102.112 33.0439 102.112 33.0926V53.4524C102.112 53.4868 102.099 53.5198 102.074 53.5442C102.05 53.5686 102.017 53.5822 101.983 53.5822L95.2458 53.5846C95.2152 53.5846 95.1858 53.5722 95.1642 53.5503C95.1425 53.5283 95.1304 53.4985 95.1304 53.4674V7.57496C95.1304 7.54482 95.1423 7.51592 95.1635 7.49461C95.1847 7.4733 95.2135 7.46132 95.2435 7.46132C99.0963 7.46055 102.963 7.46094 106.844 7.46248C111.782 7.4648 113.456 10.4159 113.411 14.9568C113.385 17.676 113.415 20.3952 113.381 23.1144C113.352 25.4034 112.571 27.5637 110.465 28.6247C110.46 28.6273 110.456 28.6313 110.453 28.6361C110.45 28.6409 110.448 28.6465 110.448 28.652C110.448 28.6576 110.45 28.663 110.453 28.6676C110.456 28.6722 110.46 28.6758 110.465 28.6781C112.291 29.5091 113.255 30.9489 113.357 32.9975C113.378 33.4242 113.39 33.8528 113.393 34.2834C113.414 38.3806 113.423 42.4778 113.419 46.5749C113.417 48.8187 113.132 51.175 114.101 53.2842C114.116 53.3163 114.122 53.3517 114.12 53.3869C114.118 53.4222 114.106 53.4563 114.087 53.4861C114.068 53.5158 114.042 53.5404 114.011 53.5574C113.981 53.5744 113.946 53.5833 113.911 53.5834H107.301C107.249 53.5833 107.199 53.5684 107.157 53.5404C107.114 53.5124 107.08 53.4726 107.059 53.4257C106.715 52.6426 106.537 51.7988 106.527 50.8943C106.471 45.7319 106.454 40.5695 106.476 35.4071C106.481 33.9217 105.912 33.1459 104.433 33.0392C103.675 32.9851 102.926 32.9774 102.185 33.016ZM104.533 26.3566C106.359 26.1444 106.539 24.078 106.499 22.6599C106.441 20.6341 106.469 18.6048 106.47 16.5779C106.47 15.1795 106.182 13.883 104.57 13.7717C103.776 13.7161 102.99 13.7029 102.213 13.7323C102.186 13.7332 102.16 13.7446 102.141 13.7641C102.123 13.7835 102.112 13.8096 102.112 13.8367V26.3044C102.112 26.3216 102.116 26.3385 102.122 26.3543C102.129 26.37 102.139 26.3842 102.151 26.396C102.164 26.4077 102.179 26.4167 102.195 26.4225C102.211 26.4283 102.228 26.4308 102.245 26.4296C103.024 26.3763 103.788 26.4436 104.533 26.3566Z" fill="white"/>
<path d="M127.364 53.583H120.655C120.641 53.583 120.627 53.5802 120.614 53.5748C120.601 53.5694 120.589 53.5614 120.579 53.5514C120.569 53.5414 120.561 53.5295 120.556 53.5164C120.55 53.5034 120.548 53.4893 120.548 53.4752V14.2653C120.548 14.2367 120.536 14.2093 120.516 14.1891C120.496 14.1688 120.469 14.1575 120.44 14.1575H114.798C114.77 14.1575 114.743 14.1461 114.722 14.1259C114.702 14.1057 114.691 14.0782 114.691 14.0496V7.56878C114.691 7.55462 114.694 7.54059 114.699 7.52751C114.705 7.51443 114.713 7.50254 114.722 7.49252C114.732 7.48251 114.744 7.47457 114.757 7.46915C114.77 7.46373 114.784 7.46094 114.798 7.46094H133.221C133.235 7.46094 133.249 7.46373 133.262 7.46915C133.275 7.47457 133.287 7.48251 133.297 7.49252C133.307 7.50254 133.315 7.51443 133.32 7.52751C133.326 7.54059 133.328 7.55462 133.328 7.56878V14.0496C133.328 14.0782 133.317 14.1057 133.297 14.1259C133.277 14.1461 133.25 14.1575 133.221 14.1575H127.579C127.565 14.1575 127.551 14.1603 127.538 14.1657C127.525 14.1711 127.513 14.1791 127.503 14.1891C127.493 14.1991 127.485 14.211 127.48 14.2241C127.475 14.2371 127.472 14.2512 127.472 14.2653V53.4752C127.472 53.5038 127.46 53.5312 127.44 53.5514C127.42 53.5716 127.393 53.583 127.364 53.583Z" fill="white"/>
<path d="M151.994 44.9117L147.086 44.914C147.067 44.9142 147.05 44.9212 147.036 44.9336C147.023 44.946 147.014 44.9629 147.012 44.9813L146.101 53.5158C146.099 53.5341 146.091 53.5511 146.077 53.5635C146.064 53.5759 146.046 53.5828 146.028 53.583H139.927C139.917 53.5829 139.906 53.5806 139.897 53.5762C139.887 53.5717 139.879 53.5653 139.872 53.5573C139.865 53.5493 139.859 53.54 139.856 53.5298C139.853 53.5196 139.852 53.5089 139.854 53.4984L145.452 7.52704C145.454 7.50869 145.463 7.49183 145.477 7.47964C145.491 7.46745 145.508 7.4608 145.527 7.46094H153.68C153.698 7.46108 153.716 7.46786 153.729 7.48002C153.743 7.49218 153.752 7.50889 153.754 7.52704L159.718 53.4995C159.719 53.5101 159.718 53.5208 159.715 53.5309C159.712 53.5411 159.707 53.5505 159.7 53.5585C159.693 53.5665 159.684 53.5729 159.675 53.5773C159.665 53.5818 159.654 53.5841 159.644 53.5842L153.052 53.5795C153.034 53.5794 153.016 53.5724 153.002 53.56C152.989 53.5476 152.98 53.5306 152.978 53.5123L152.068 44.979C152.066 44.9606 152.057 44.9436 152.044 44.9312C152.03 44.9188 152.012 44.9119 151.994 44.9117ZM151.253 37.9867C151.261 37.9868 151.268 37.9852 151.276 37.982C151.283 37.9789 151.289 37.9742 151.294 37.9684C151.3 37.9626 151.304 37.9558 151.306 37.9484C151.308 37.9409 151.309 37.9331 151.308 37.9253L149.523 21.4605C149.493 21.1837 149.463 21.1841 149.434 21.4616L147.709 37.9508C147.708 37.9557 147.709 37.9607 147.71 37.9655C147.712 37.9703 147.714 37.9747 147.718 37.9784C147.721 37.9821 147.725 37.9851 147.73 37.9872C147.735 37.9892 147.74 37.9902 147.745 37.9902L151.253 37.9867Z" fill="white"/>
<path d="M167.157 27.3244C167.129 27.595 167.114 27.837 167.114 28.0503C167.113 36.5431 167.112 45.0342 167.113 53.5239C167.113 53.5402 167.107 53.5558 167.096 53.5673C167.084 53.5789 167.069 53.5853 167.053 53.5853L160.991 53.5784C160.88 53.5784 160.824 53.5223 160.824 53.4102V7.51892C160.824 7.50354 160.83 7.48879 160.841 7.47792C160.851 7.46705 160.866 7.46094 160.881 7.46094H167.1C167.121 7.46094 167.134 7.47099 167.139 7.49109L173.014 31.7714C173.063 31.9763 173.087 31.9732 173.087 31.7621L173.084 7.50848C173.084 7.49587 173.089 7.48378 173.098 7.47486C173.107 7.46595 173.119 7.46094 173.131 7.46094H179.403C179.419 7.46094 179.433 7.46705 179.444 7.47792C179.455 7.48879 179.461 7.50354 179.461 7.51892V53.4334C179.461 53.4528 179.457 53.4719 179.45 53.4898C179.443 53.5076 179.432 53.5239 179.418 53.5376C179.405 53.5512 179.388 53.5621 179.371 53.5695C179.353 53.5769 179.334 53.5807 179.315 53.5807L173.864 53.5842C173.838 53.5841 173.813 53.5755 173.793 53.5595C173.773 53.5435 173.758 53.5212 173.752 53.496L167.18 27.3221C167.169 27.2804 167.162 27.2812 167.157 27.3244Z" fill="white"/>
<path d="M182.24 53.5702C182.184 53.5696 182.13 53.5467 182.091 53.5065C182.051 53.4664 182.029 53.4122 182.029 53.3557V7.57568C182.029 7.54554 182.041 7.51663 182.062 7.49532C182.083 7.47401 182.111 7.46204 182.141 7.46204C185.754 7.46049 189.38 7.45817 193.021 7.45508C196.946 7.45276 199.491 9.25938 200.278 13.1324C200.458 14.0175 200.548 14.8543 200.549 15.6428C200.552 25.4296 200.545 35.2161 200.529 45.0021C200.52 50.1564 198.155 53.5528 192.739 53.5818C189.287 53.6003 185.787 53.5965 182.24 53.5702ZM193.372 17.1503C193.368 15.6973 193.189 13.8467 191.289 13.7527C190.55 13.7164 189.817 13.7087 189.09 13.7295C189.077 13.7298 189.064 13.7355 189.054 13.7452C189.045 13.755 189.039 13.7681 189.039 13.7817V46.7728C189.039 46.8168 189.061 46.84 189.105 46.8423C189.749 46.8779 190.393 46.8771 191.037 46.84C193.212 46.716 193.388 44.8548 193.389 43.1468C193.395 34.4817 193.389 25.8162 193.372 17.1503Z" fill="white"/>
<path d="M49.8658 98.2408C48.6622 96.658 48.2259 94.6044 48.2213 92.6563C48.2136 89.4953 48.2148 86.3343 48.2248 83.1733C48.2248 83.1393 48.2413 83.1223 48.2744 83.1223L55.0577 83.1234C55.0962 83.1234 55.1154 83.1431 55.1154 83.1826C55.1147 85.4561 55.1158 87.7277 55.1189 89.9974C55.12 91.6219 54.9308 94.2716 57.2573 94.3783C58.8071 94.449 59.4626 93.4123 59.5838 91.993C59.7211 90.3928 59.7546 88.4482 59.563 87.0393C59.3057 85.1573 58.3744 83.6823 57.2031 82.154C55.5928 80.0544 53.976 77.9598 52.3527 75.8703C50.2409 73.1499 48.9737 70.3913 48.6818 66.9242C48.1879 61.0683 48.571 54.5956 56.0756 54.1074C61.8676 53.7305 66.3279 54.6802 66.4029 61.6539C66.4314 64.239 66.4364 66.8747 66.4179 69.561C66.4179 69.5752 66.4123 69.5888 66.4023 69.5988C66.3924 69.6088 66.3789 69.6144 66.3648 69.6144H59.7327C59.7171 69.6144 59.7021 69.6082 59.691 69.5971C59.68 69.586 59.6738 69.5709 59.6738 69.5552C59.6738 67.332 59.673 65.1002 59.6715 62.8599C59.6703 61.4162 59.263 60.1581 57.5331 60.2821C56.5576 60.3532 55.9871 60.8588 55.8217 61.7988C55.6036 63.0338 55.6244 64.5981 55.7525 65.7634C55.9752 67.7927 57.0184 69.4173 58.2336 71.0128C60.2824 73.703 61.6922 75.5398 62.4631 76.5231C64.2033 78.7437 65.7797 80.9249 66.5391 83.6464C67.1438 85.8113 67.1242 88.1108 67.0722 90.4577C67.0445 91.7364 66.9726 92.739 66.8564 93.4657C66.1848 97.6656 63.706 100.61 59.338 101.031C56.0363 101.348 52.0815 101.157 49.8658 98.2408Z" fill="white"/>
<path d="M91.9047 96.1763C91.9036 96.1709 91.9007 96.166 91.8966 96.1625C91.8924 96.159 91.8871 96.1569 91.8816 96.1567C91.876 96.1564 91.8704 96.1579 91.8657 96.1611C91.8609 96.1642 91.8572 96.1687 91.8551 96.1739C90.8615 98.6496 88.7092 100.886 85.9834 101.188C81.6224 101.67 79.0801 98.3632 78.5285 94.4276C78.4616 93.9522 78.4281 93.2313 78.4281 92.265C78.425 82.724 78.4304 73.1831 78.4442 63.6421C78.45 60.0474 79.6352 56.1338 83.3084 54.6913C85.1895 53.9527 87.3036 53.9805 89.3532 54.0907C94.9963 54.3945 96.5889 58.1724 96.657 63.1864C96.6824 65.0525 96.695 66.9906 96.695 69.0005C96.695 69.0318 96.6826 69.0619 96.6606 69.0841C96.6385 69.1063 96.6086 69.1188 96.5773 69.1188L89.9925 69.1257C89.9622 69.1257 89.9331 69.1136 89.9117 69.0921C89.8903 69.0706 89.8783 69.0414 89.8783 69.0109C89.8821 67.0837 89.8806 65.1515 89.8736 63.2142C89.8679 61.665 88.9366 60.502 87.2806 60.8034C85.6511 61.1003 85.5253 62.8942 85.5253 64.2196C85.5215 73.1003 85.5184 81.9815 85.5161 90.8631C85.5149 92.3613 86.0261 94.1354 87.8299 94.1238C89.8886 94.1122 90.3687 92.6083 90.3687 90.884C90.3672 87.1656 90.3695 83.4557 90.3756 79.7544C90.3756 79.7422 90.3733 79.7302 90.3686 79.719C90.3639 79.7079 90.3571 79.6977 90.3485 79.6892C90.3399 79.6807 90.3298 79.6739 90.3186 79.6694C90.3074 79.6649 90.2954 79.6626 90.2833 79.6628L87.344 79.6778C87.3285 79.678 87.313 79.6751 87.2986 79.6692C87.2842 79.6633 87.2711 79.6546 87.2601 79.6436C87.249 79.6326 87.2402 79.6195 87.2342 79.6051C87.2283 79.5907 87.2252 79.5752 87.2252 79.5596V72.6868C87.2252 72.656 87.2373 72.6265 87.259 72.6048C87.2806 72.583 87.31 72.5708 87.3406 72.5708H96.9039C96.9309 72.5708 96.9567 72.5814 96.9757 72.6004C96.9948 72.6193 97.0055 72.6449 97.0055 72.6717V100.546C97.0055 100.584 96.9862 100.604 96.9478 100.604H93.113C93.0953 100.603 93.0782 100.598 93.0642 100.587C93.0502 100.576 93.0402 100.561 93.0357 100.544L91.9047 96.1763Z" fill="white"/>
<path d="M145.147 86.568C145.647 92.7926 145.015 100.871 136.725 101.084C135.275 101.121 133.799 101.143 132.369 100.86C127.779 99.9553 126.362 96.2968 126.351 92.062C126.344 89.1013 126.343 86.1405 126.35 83.1797C126.35 83.1418 126.37 83.1229 126.407 83.1229H133.213C133.228 83.1229 133.243 83.1291 133.254 83.1402C133.265 83.1513 133.271 83.1663 133.271 83.182C133.271 85.9464 133.271 88.7194 133.271 91.5008C133.271 93.2263 133.994 94.5122 135.893 94.3406C137.306 94.2119 137.668 92.9085 137.757 91.6956C137.858 90.3165 137.859 88.9366 137.759 87.5559C137.609 85.4861 136.646 83.8314 135.405 82.2231C133.726 80.0461 132.044 77.8723 130.357 75.7016C128.039 72.7192 126.804 69.4747 126.747 65.6771C126.711 63.3394 126.609 61.5699 127.112 59.5824C128.481 54.1834 133.652 53.7358 138.234 54.1324C143.017 54.5463 144.537 57.6262 144.548 62.0778C144.555 64.5709 144.555 67.0639 144.55 69.557C144.55 69.5721 144.544 69.5865 144.533 69.5972C144.522 69.6079 144.508 69.6138 144.493 69.6138H137.889C137.873 69.6138 137.857 69.6075 137.846 69.5962C137.835 69.5849 137.829 69.5695 137.829 69.5535C137.83 67.4369 137.832 65.3118 137.833 63.1782C137.834 61.9746 137.722 60.4891 136.206 60.299C134.545 60.0903 133.959 61.0388 133.866 62.5196C133.811 63.3761 133.8 64.2338 133.831 65.0927C133.914 67.3295 134.917 69.0909 136.236 70.814C138.112 73.2653 139.989 75.7175 141.864 78.1703C143.796 80.6971 144.885 83.3131 145.147 86.568Z" fill="white"/>
<path d="M155.37 101.151C151.545 101.136 148.477 99.3133 147.499 95.4392C147.104 93.8749 147.007 92.6121 147.007 90.8264C147.002 81.6395 147.002 72.4525 147.006 63.2656C147.007 58.4673 149.139 54.5027 154.386 54.1189C158.262 53.8348 162.802 53.9937 164.602 58.1635C165.34 59.8739 165.46 61.8718 165.464 63.7376C165.47 66.4417 165.47 69.1451 165.466 71.8476C165.466 71.8627 165.46 71.8772 165.449 71.8878C165.438 71.8985 165.424 71.9045 165.409 71.9045H158.66C158.647 71.9044 158.635 71.9 158.625 71.892C158.614 71.8841 158.607 71.873 158.604 71.8604C158.536 71.5856 158.598 71.2609 158.599 71.0649C158.605 68.6777 158.604 66.2906 158.597 63.9034C158.591 61.895 157.881 60.2728 155.487 60.8653C154.46 61.1193 154.132 62.229 154.131 63.1566C154.129 72.5855 154.128 82.0144 154.129 91.4433C154.129 92.7664 154.549 94.1381 156.081 94.3144C157.846 94.5173 158.62 93.011 158.591 91.4943C158.524 87.888 158.607 84.2504 158.6 80.5723C158.6 80.5569 158.606 80.5421 158.617 80.5313C158.628 80.5204 158.643 80.5143 158.658 80.5143H165.41C165.426 80.5143 165.441 80.5205 165.452 80.5316C165.463 80.5427 165.469 80.5578 165.469 80.5734C165.468 84.1496 165.466 87.7342 165.462 91.3273C165.458 96.6521 163.369 101.126 157.304 101.151C156.659 101.154 156.014 101.154 155.37 101.151Z" fill="white"/>
<path d="M193.979 100.535C189.418 98.9008 188.758 93.8902 188.755 89.7262C188.746 76.5411 188.745 68.1171 188.752 64.4544C188.76 60.2684 189.964 55.8075 194.463 54.4844C196.186 53.9777 198.154 53.9788 199.953 54.0936C206.625 54.5227 207.844 59.706 207.848 65.2777C207.852 73.5262 207.853 81.7746 207.849 90.0231C207.847 95.596 206.336 100.916 199.621 101.142C197.73 101.206 195.831 101.199 193.979 100.535ZM195.875 89.9581C195.878 91.6105 195.825 94.2509 198.214 94.3367C200.27 94.4097 200.726 92.5927 200.726 90.9507C200.727 81.947 200.722 72.9433 200.712 63.9396C200.711 62.7313 200.342 61.2123 199.026 60.8609C198.211 60.6429 197.497 60.7558 196.883 61.1995C195.786 61.9915 195.881 63.7784 195.877 64.9542C195.855 73.2892 195.854 81.6239 195.875 89.9581Z" fill="white"/>
<path d="M212.979 99.161C210.436 96.8871 210.046 93.2078 210.045 90.0236C210.042 81.384 210.042 72.7448 210.044 64.1059C210.045 59.194 212.008 54.6867 217.487 54.1521C219.62 53.9434 221.888 53.9365 223.882 54.6067C228.351 56.1095 229.11 60.735 229.111 64.8283C229.114 73.4293 229.114 82.0302 229.112 90.6312C229.111 96.3398 227.013 101.125 220.487 101.154C217.732 101.166 215.165 101.118 212.979 99.161ZM218.714 94.1494C219.831 94.6039 221.213 94.2154 221.665 93.006C221.886 92.4162 221.996 91.7792 221.996 91.095C221.992 82.1501 221.988 73.2055 221.985 64.2613C221.985 63.3406 221.895 62.4767 221.496 61.7648C220.806 60.5344 218.793 60.4289 217.883 61.4412C217.259 62.1381 217.143 63.3337 217.143 64.2799C217.139 73.1869 217.144 82.094 217.16 91.0011C217.162 92.2488 217.409 93.6194 218.714 94.1494Z" fill="white"/>
<path d="M20.8623 100.582C17.1848 100.611 13.5108 100.616 9.84027 100.597C9.82711 100.597 9.81449 100.592 9.80518 100.582C9.79588 100.573 9.79065 100.56 9.79065 100.547V54.5411C9.79065 54.5272 9.79612 54.514 9.80586 54.5042C9.8156 54.4944 9.82881 54.4889 9.84258 54.4889C13.6555 54.4688 17.4753 54.4754 21.302 54.5086C21.999 54.5148 22.7291 54.6327 23.4923 54.8623C27.5475 56.0856 28.2792 59.6699 28.2803 63.4176C28.285 73.0104 28.2857 82.6036 28.2826 92.1971C28.2826 92.5821 28.2388 93.1333 28.1511 93.8507C27.6399 98.0182 25.1437 100.548 20.8623 100.582ZM21.1162 64.1713C21.1139 62.628 20.8854 60.7819 18.8762 60.7773C17.8746 60.7749 17.1879 60.7726 16.8163 60.7703C16.7702 60.7703 16.7471 60.7935 16.7471 60.8399L16.7436 93.7904C16.7436 93.836 16.7663 93.8595 16.8117 93.8611C18.6281 93.933 20.5726 94.1498 20.9892 91.9629C21.0816 91.4758 21.1277 90.9838 21.1277 90.4867C21.13 81.7149 21.1262 72.9431 21.1162 64.1713Z" fill="white"/>
<path d="M30.7358 100.528V54.559C30.7358 54.5387 30.7439 54.5192 30.7581 54.5048C30.7724 54.4905 30.7918 54.4824 30.812 54.4824H46.5274C46.5476 54.4824 46.567 54.4905 46.5813 54.5048C46.5956 54.5192 46.6036 54.5387 46.6036 54.559V61.1024C46.6036 61.1227 46.5956 61.1422 46.5813 61.1565C46.567 61.1709 46.5476 61.179 46.5274 61.179H37.7938C37.7838 61.179 37.7739 61.1809 37.7647 61.1848C37.7554 61.1886 37.747 61.1943 37.74 61.2014C37.7329 61.2085 37.7273 61.2169 37.7235 61.2262C37.7196 61.2355 37.7177 61.2454 37.7177 61.2555V73.1666C37.7177 73.1767 37.7196 73.1866 37.7235 73.1959C37.7273 73.2052 37.7329 73.2137 37.74 73.2208C37.747 73.2279 37.7554 73.2335 37.7647 73.2374C37.7739 73.2412 37.7838 73.2432 37.7938 73.2432L44.6233 73.2362C44.6435 73.2362 44.6629 73.2443 44.6772 73.2586C44.6914 73.273 44.6995 73.2925 44.6995 73.3128V80.2064C44.6995 80.2267 44.6914 80.2462 44.6772 80.2605C44.6629 80.2749 44.6435 80.283 44.6233 80.283H37.7938C37.7838 80.283 37.7739 80.2849 37.7647 80.2888C37.7554 80.2926 37.747 80.2983 37.74 80.3054C37.7329 80.3125 37.7273 80.3209 37.7235 80.3302C37.7196 80.3395 37.7177 80.3494 37.7177 80.3595V93.5125C37.7177 93.5328 37.7257 93.5523 37.74 93.5667C37.7542 93.581 37.7736 93.5891 37.7938 93.5891H46.9025C46.9227 93.5891 46.9421 93.5971 46.9563 93.6115C46.9706 93.6258 46.9787 93.6453 46.9787 93.6656V100.528C46.9787 100.548 46.9706 100.568 46.9563 100.582C46.9421 100.596 46.9227 100.604 46.9025 100.604H30.812C30.7918 100.604 30.7724 100.596 30.7581 100.582C30.7439 100.568 30.7358 100.548 30.7358 100.528Z" fill="white"/>
<path d="M75.9663 54.4834H69.1161C69.0797 54.4834 69.0503 54.513 69.0503 54.5495V100.538C69.0503 100.575 69.0797 100.604 69.1161 100.604H75.9663C76.0027 100.604 76.0321 100.575 76.0321 100.538V54.5495C76.0321 54.513 76.0027 54.4834 75.9663 54.4834Z" fill="white"/>
<path d="M111.661 78.8358V54.5427C111.661 54.5283 111.667 54.5144 111.678 54.5042C111.688 54.494 111.702 54.4882 111.717 54.4882L117.952 54.4847C117.975 54.4847 117.996 54.4938 118.012 54.5099C118.028 54.526 118.037 54.5478 118.037 54.5706V100.547C118.037 100.562 118.031 100.577 118.02 100.588C118.01 100.598 117.995 100.604 117.98 100.604H112.409C112.39 100.604 112.372 100.598 112.356 100.586C112.341 100.574 112.331 100.557 112.326 100.538L105.735 74.2903C105.733 74.2812 105.728 74.2733 105.72 74.2681C105.712 74.2628 105.703 74.2605 105.694 74.2616C105.685 74.2628 105.676 74.2673 105.67 74.2742C105.664 74.2812 105.66 74.2902 105.66 74.2996C105.661 74.3173 105.663 74.3336 105.666 74.3483C105.673 74.3741 105.679 74.3981 105.683 74.4173C105.687 74.4365 105.689 74.45 105.689 74.4561V100.547C105.689 100.562 105.683 100.577 105.672 100.588C105.662 100.598 105.647 100.604 105.632 100.604H99.5153C99.4847 100.604 99.4553 100.592 99.4337 100.571C99.4121 100.549 99.3999 100.519 99.3999 100.489V54.5404C99.3999 54.525 99.406 54.5103 99.4168 54.4994C99.4276 54.4885 99.4423 54.4824 99.4576 54.4824H105.663C105.674 54.4824 105.684 54.4862 105.693 54.4932C105.701 54.5001 105.707 54.5098 105.71 54.5207L111.594 78.8439C111.595 78.8483 111.596 78.8526 111.599 78.8565C111.601 78.8604 111.604 78.8638 111.607 78.8665C111.611 78.8693 111.615 78.8713 111.619 78.8725C111.623 78.8737 111.628 78.874 111.632 78.8735C111.636 78.873 111.641 78.8716 111.644 78.8694C111.648 78.8672 111.652 78.8643 111.654 78.8608C111.657 78.8573 111.659 78.8533 111.66 78.849C111.662 78.8447 111.662 78.8402 111.661 78.8358Z" fill="white"/>
<path d="M174.646 80.4256L174.639 100.52C174.639 100.531 174.637 100.542 174.633 100.552C174.629 100.563 174.622 100.572 174.615 100.58C174.607 100.588 174.597 100.594 174.587 100.598C174.577 100.602 174.566 100.604 174.555 100.604H167.744C167.722 100.604 167.7 100.596 167.684 100.58C167.669 100.564 167.66 100.542 167.66 100.52V54.5694C167.66 54.5469 167.669 54.5254 167.684 54.5095C167.7 54.4937 167.722 54.4847 167.744 54.4847L174.558 54.4905C174.581 54.4905 174.602 54.4995 174.618 54.5153C174.634 54.5312 174.643 54.5527 174.643 54.5752L174.64 72.864C174.64 72.8864 174.649 72.908 174.665 72.9239C174.681 72.9397 174.702 72.9486 174.725 72.9486H179.289C179.311 72.9486 179.332 72.9397 179.348 72.9239C179.364 72.908 179.373 72.8864 179.373 72.864V54.5671C179.373 54.5446 179.382 54.5231 179.398 54.5072C179.413 54.4913 179.435 54.4824 179.457 54.4824H186.299C186.322 54.4824 186.343 54.4913 186.359 54.5072C186.375 54.5231 186.384 54.5446 186.384 54.5671V100.52C186.384 100.542 186.375 100.564 186.359 100.58C186.343 100.596 186.322 100.604 186.299 100.604H179.457C179.435 100.604 179.413 100.596 179.398 100.58C179.382 100.564 179.373 100.542 179.373 100.52V80.4256C179.373 80.4031 179.364 80.3816 179.348 80.3657C179.332 80.3498 179.311 80.3409 179.289 80.3409H174.73C174.708 80.3409 174.687 80.3498 174.671 80.3657C174.655 80.3816 174.646 80.4031 174.646 80.4256Z" fill="white"/>
<path d="M238.571 93.4731H246.918C246.94 93.4731 246.961 93.4818 246.976 93.4972C246.991 93.5127 247 93.5336 247 93.5554V100.522C247 100.544 246.991 100.565 246.976 100.58C246.961 100.596 246.94 100.604 246.918 100.604H231.589C231.568 100.604 231.547 100.596 231.531 100.58C231.516 100.565 231.507 100.544 231.507 100.522V54.5648C231.507 54.5429 231.516 54.522 231.531 54.5065C231.547 54.4911 231.568 54.4824 231.589 54.4824H238.407C238.429 54.4824 238.45 54.4911 238.465 54.5065C238.48 54.522 238.489 54.5429 238.489 54.5648V93.3908C238.489 93.4126 238.498 93.4336 238.513 93.449C238.529 93.4644 238.549 93.4731 238.571 93.4731Z" fill="white"/>
</svg>
