<svg width="542" height="202" viewBox="0 0 542 202" fill="none" xmlns="http://www.w3.org/2000/svg">
<rect x="1" y="1" width="540" height="200" fill="white" stroke="#5135ED" stroke-width="2"/>
<rect x="1" y="1" width="540" height="62" fill="white" stroke="#5135ED" stroke-width="2"/>
<rect x="0.5" y="0.5" width="51" height="201" fill="#5135ED" stroke="#5135ED"/>
<path d="M13.3322 73.1722L8 68H44V78.1827H8L13.3322 73.1722Z" fill="white" stroke="white" stroke-width="2"/>
<path d="M13.3322 89.27L8.00006 84.1826H44V94.1984H8.00006L13.3322 89.27Z" fill="white" stroke="white" stroke-width="2"/>
<path d="M13.3322 105.286L8.00006 100.198H44V110.214H8.00006L13.3322 105.286Z" fill="white" stroke="white" stroke-width="2"/>
<path d="M13.3322 121.387L8.00006 116.214H44V126.397H8.00006L13.3322 121.387Z" fill="white" stroke="white" stroke-width="2"/>
<path d="M13.3322 137.484L8.00006 132.397H44V142.413H8.00006L13.3322 137.484Z" fill="white" stroke="white" stroke-width="2"/>
<path d="M13.3322 153.5L8.00006 148.413H44V158.428H8.00006L13.3322 153.5Z" fill="white" stroke="white" stroke-width="2"/>
<path d="M13.3322 169.516L8.00006 164.428H44V174.444H8.00006L13.3322 169.516Z" fill="white" stroke="white" stroke-width="2"/>
<path d="M13.3322 185.616L8.00006 180.444H44V190.627H8.00006L13.3322 185.616Z" fill="white" stroke="white" stroke-width="2"/>
</svg>
