<svg width="31" height="737" viewBox="0 0 31 737" fill="none" xmlns="http://www.w3.org/2000/svg">
<path d="M11.668 102.956C11.5273 103.245 11.4219 103.542 11.3516 103.846C11.2734 104.143 11.2344 104.487 11.2344 104.877C11.2344 105.417 11.3164 105.924 11.4805 106.401C11.6367 106.87 11.875 107.276 12.1953 107.62C12.5156 107.963 12.918 108.233 13.4023 108.428C13.8789 108.616 14.4453 108.709 15.1016 108.709L17.8203 108.709L17.8203 106.26L20 106.26L20 113.608L17.8203 113.608L17.8203 111.135L11.2695 111.135L11.2695 113.608L9.07812 113.608L9.07812 108.709L11.8203 108.709C10.7266 108.311 9.95312 107.725 9.5 106.952C9.04687 106.17 8.82031 105.245 8.82031 104.174C8.82031 103.838 8.85547 103.487 8.92578 103.12C8.99609 102.752 9.12109 102.393 9.30078 102.042L11.668 102.956ZM15.4648 98.2798C16.2148 98.1626 16.8398 97.8071 17.3398 97.2134C17.832 96.6118 18.0781 95.8071 18.0781 94.7993C18.0781 94.0103 17.957 93.3267 17.7148 92.7485C17.4648 92.1626 17.1367 91.6587 16.7305 91.2368L18.4414 89.9946C19.1445 90.6978 19.625 91.4438 19.8828 92.2329C20.1406 93.0142 20.2695 93.8696 20.2695 94.7993C20.2695 95.6431 20.1289 96.4282 19.8477 97.1548C19.5664 97.8813 19.1758 98.5103 18.6758 99.0415C18.168 99.5728 17.5664 99.9907 16.8711 100.295C16.1758 100.592 15.4023 100.741 14.5508 100.741C13.7227 100.741 12.9609 100.604 12.2656 100.331C11.5625 100.049 10.957 99.6587 10.4492 99.1587C9.93359 98.6509 9.53516 98.0454 9.25391 97.3423C8.96484 96.6392 8.82031 95.8618 8.82031 95.0103C8.82031 94.1274 8.97266 93.3267 9.27734 92.6079C9.57422 91.8892 10.0078 91.2759 10.5781 90.7681C11.1484 90.2524 11.8477 89.8501 12.6758 89.561C13.4961 89.272 14.4258 89.1274 15.4648 89.1274L15.4648 98.2798ZM13.332 91.8696C12.6289 91.9946 12.0664 92.3579 11.6445 92.9595C11.2148 93.561 11 94.2446 11 95.0103C11 95.7759 11.2148 96.4634 11.6445 97.0728C12.0664 97.6821 12.6289 98.0493 13.332 98.1743L13.332 91.8696ZM19.8828 77.0571C20.6328 77.0571 21.3008 77.186 21.8867 77.4438C22.4727 77.7017 22.9687 78.0649 23.375 78.5337C23.7812 78.9946 24.0898 79.5415 24.3008 80.1743C24.5195 80.7993 24.6289 81.4985 24.6289 82.272C24.6289 84.1704 24.0547 85.7915 22.9062 87.1353L21.0312 85.9868C21.9922 84.8696 22.4727 83.6313 22.4727 82.272C22.4727 81.436 22.2656 80.7642 21.8516 80.2563C21.4453 79.7407 20.8047 79.4829 19.9297 79.4829L18.7578 79.4829C19.1875 79.9829 19.5078 80.4634 19.7187 80.9243C19.9219 81.3853 20.0234 81.9204 20.0234 82.5298C20.0234 83.2329 19.875 83.8853 19.5781 84.4868C19.2812 85.0884 18.8789 85.6079 18.3711 86.0454C17.8555 86.4751 17.2578 86.8149 16.5781 87.0649C15.8984 87.3071 15.1758 87.4282 14.4102 87.4282C13.6445 87.4282 12.9219 87.3071 12.2422 87.0649C11.5547 86.8149 10.9609 86.4751 10.4609 86.0454C9.95312 85.6079 9.55469 85.0884 9.26562 84.4868C8.96875 83.8853 8.82031 83.2329 8.82031 82.5298C8.82031 81.9204 8.92578 81.3774 9.13672 80.9009C9.33984 80.4243 9.64844 79.9517 10.0625 79.4829L9.07812 79.4829L9.07812 77.0571L19.8828 77.0571ZM11.9844 79.4829C11.6641 79.772 11.4219 80.147 11.2578 80.6079C11.0859 81.061 11 81.5024 11 81.9321C11 82.8462 11.3203 83.5884 11.9609 84.1587C12.6016 84.7212 13.418 85.0024 14.4102 85.0024C14.9023 85.0024 15.3594 84.9282 15.7812 84.7798C16.1953 84.6235 16.5547 84.4126 16.8594 84.147C17.1641 83.8735 17.4062 83.5493 17.5859 83.1743C17.7578 82.7915 17.8437 82.3774 17.8437 81.9321C17.8437 81.5024 17.7578 81.061 17.5859 80.6079C17.4062 80.147 17.1562 79.772 16.8359 79.4829L11.9844 79.4829ZM9.07812 73.729L9.07812 71.3032L15.8281 71.3032C16.6719 71.3032 17.2578 71.1431 17.5859 70.8228C17.9141 70.5024 18.0781 70.0376 18.0781 69.4282C18.0781 68.5376 17.7148 67.8071 16.9883 67.2368C16.2617 66.6665 15.2578 66.3813 13.9766 66.3813L9.07812 66.3813L9.07812 63.9556L20 63.9556L20 66.3813L17.2695 66.3813C18.207 66.6235 18.9414 67.0728 19.4727 67.729C20.0039 68.3853 20.2695 69.1938 20.2695 70.1548C20.2695 71.272 19.9062 72.147 19.1797 72.7798C18.4453 73.4126 17.3281 73.729 15.8281 73.729L9.07812 73.729ZM20 52.0142L20 59.3501L17.8203 59.3501L17.8203 56.9595L6.89844 56.9595L6.89844 59.3501L4.70703 59.3501L4.70703 54.5337L17.8203 54.5337L17.8203 52.0142L20 52.0142ZM16.8594 48.147C16.2187 48.147 15.6602 47.9751 15.1836 47.6313C14.6992 47.2876 14.2969 46.8384 13.9766 46.2837C13.6562 45.7212 13.418 45.0806 13.2617 44.3618C13.0977 43.6353 13.0156 42.897 13.0156 42.147C13.0156 41.7329 13.0234 41.3774 13.0391 41.0806C13.0547 40.7837 13.0781 40.4829 13.1094 40.1782L12.6758 40.1782C12.1055 40.1782 11.6797 40.4009 11.3984 40.8462C11.1172 41.2837 10.9766 41.8618 10.9766 42.5806C10.9766 43.2368 11.0703 43.9048 11.2578 44.5845C11.4375 45.2642 11.7031 45.9087 12.0547 46.5181L10.1562 47.5024C9.74218 46.7837 9.41797 46.0142 9.18359 45.1938C8.9414 44.3657 8.82031 43.4946 8.82031 42.5806C8.82031 41.9868 8.88672 41.4048 9.01953 40.8345C9.15234 40.2563 9.37109 39.7407 9.67578 39.2876C9.98047 38.8267 10.3789 38.4595 10.8711 38.186C11.3555 37.9126 11.957 37.7759 12.6758 37.7759L20 37.7759L20 40.1782L18.3945 40.1782C18.9883 40.561 19.4492 41.1274 19.7773 41.8774C20.1055 42.6196 20.2695 43.4204 20.2695 44.2798C20.2695 44.811 20.1953 45.3149 20.0469 45.7915C19.9062 46.2603 19.6914 46.6665 19.4023 47.0103C19.1133 47.354 18.7578 47.6313 18.3359 47.8423C17.9062 48.0454 17.4141 48.147 16.8594 48.147ZM18.1016 43.6587C18.1016 43.1821 18.043 42.7368 17.9258 42.3228C17.8008 41.9009 17.6328 41.5298 17.4219 41.2095C17.2031 40.8892 16.9414 40.6392 16.6367 40.4595C16.332 40.272 15.9961 40.1782 15.6289 40.1782L15.2187 40.1782C15.1562 40.561 15.1211 40.9204 15.1133 41.2563C15.1055 41.5923 15.1016 41.8892 15.1016 42.147C15.1016 43.3345 15.2578 44.2329 15.5703 44.8423C15.8828 45.4438 16.2695 45.7446 16.7305 45.7446C17.6445 45.7446 18.1016 45.0493 18.1016 43.6587ZM11.668 24.3462C11.5273 24.6353 11.4219 24.9321 11.3516 25.2368C11.2734 25.5337 11.2344 25.8774 11.2344 26.2681C11.2344 26.8071 11.3164 27.3149 11.4805 27.7915C11.6367 28.2603 11.875 28.6665 12.1953 29.0103C12.5156 29.354 12.918 29.6235 13.4023 29.8188C13.8789 30.0063 14.4453 30.1001 15.1016 30.1001L17.8203 30.1001L17.8203 27.6509L20 27.6509L20 34.9985L17.8203 34.9985L17.8203 32.5259L11.2695 32.5259L11.2695 34.9985L9.07812 34.9985L9.07812 30.1001L11.8203 30.1001C10.7266 29.7017 9.95312 29.1157 9.5 28.3423C9.04687 27.561 8.82031 26.6353 8.82031 25.5649C8.82031 25.229 8.85547 24.8774 8.92578 24.5103C8.99609 24.1431 9.12109 23.7837 9.30078 23.4321L11.668 24.3462Z" fill="#5135ED"/>
<path d="M20 215.546L20 217.972L12.5117 217.972C11.9961 217.972 11.6172 218.027 11.375 218.136C11.125 218.238 11 218.421 11 218.687C11 219.171 11.2734 219.48 11.8203 219.613C12.3594 219.738 13.1484 219.8 14.1875 219.8L20 219.8L20 222.226L12.5117 222.226C11.9961 222.226 11.6172 222.281 11.375 222.39C11.125 222.5 11 222.691 11 222.964C11 223.441 11.2734 223.742 11.8203 223.867C12.3594 223.984 13.1484 224.042 14.1875 224.042L20 224.042L20 226.468L9.07812 226.468L9.07812 224.019L10.6602 224.019C10.0586 223.847 9.60156 223.593 9.28906 223.257C8.97656 222.921 8.82031 222.472 8.82031 221.91C8.82031 221.441 8.96484 221.05 9.25391 220.738C9.53516 220.417 9.92578 220.199 10.4258 220.082C9.87891 219.808 9.47656 219.527 9.21875 219.238C8.95312 218.941 8.82031 218.488 8.82031 217.878C8.82031 217.128 9.09766 216.554 9.65234 216.156C10.1992 215.75 11.0312 215.546 12.1484 215.546L20 215.546ZM15.4648 211.14C16.2148 211.023 16.8398 210.667 17.3398 210.074C17.832 209.472 18.0781 208.667 18.0781 207.66C18.0781 206.871 17.957 206.187 17.7148 205.609C17.4648 205.023 17.1367 204.519 16.7305 204.097L18.4414 202.855C19.1445 203.558 19.625 204.304 19.8828 205.093C20.1406 205.875 20.2695 206.73 20.2695 207.66C20.2695 208.503 20.1289 209.289 19.8477 210.015C19.5664 210.742 19.1758 211.371 18.6758 211.902C18.168 212.433 17.5664 212.851 16.8711 213.156C16.1758 213.453 15.4023 213.601 14.5508 213.601C13.7227 213.601 12.9609 213.464 12.2656 213.191C11.5625 212.91 10.957 212.519 10.4492 212.019C9.93359 211.511 9.53516 210.906 9.25391 210.203C8.96484 209.5 8.82031 208.722 8.82031 207.871C8.82031 206.988 8.97266 206.187 9.27734 205.468C9.57422 204.75 10.0078 204.136 10.5781 203.628C11.1484 203.113 11.8477 202.71 12.6758 202.421C13.4961 202.132 14.4258 201.988 15.4648 201.988L15.4648 211.14ZM13.332 204.73C12.6289 204.855 12.0664 205.218 11.6445 205.82C11.2148 206.421 11 207.105 11 207.871C11 208.636 11.2148 209.324 11.6445 209.933C12.0664 210.542 12.6289 210.91 13.332 211.035L13.332 204.73ZM20 189.917L20 192.343L18.9922 192.343C19.4062 192.812 19.7227 193.285 19.9414 193.761C20.1602 194.238 20.2695 194.781 20.2695 195.39C20.2695 196.093 20.1289 196.746 19.8477 197.347C19.5664 197.949 19.1758 198.468 18.6758 198.906C18.168 199.335 17.5625 199.675 16.8594 199.925C16.1562 200.167 15.3867 200.289 14.5508 200.289C13.7227 200.289 12.957 200.167 12.2539 199.925C11.543 199.675 10.9375 199.335 10.4375 198.906C9.92969 198.468 9.53516 197.949 9.25391 197.347C8.96484 196.746 8.82031 196.093 8.82031 195.39C8.82031 194.781 8.92578 194.238 9.13672 193.761C9.33984 193.285 9.64844 192.812 10.0625 192.343L6.89844 192.343L6.89844 194.453L4.70703 194.453L4.70703 189.917L20 189.917ZM11.9844 192.343C11.6641 192.632 11.4219 193.007 11.2578 193.468C11.0859 193.921 11 194.355 11 194.769C11 195.683 11.3281 196.429 11.9844 197.007C12.6406 197.578 13.4961 197.863 14.5508 197.863C15.6055 197.863 16.457 197.578 17.1055 197.007C17.7539 196.429 18.0781 195.683 18.0781 194.769C18.0781 194.355 17.9961 193.921 17.832 193.468C17.6602 193.007 17.4141 192.632 17.0937 192.343L11.9844 192.343ZM7.66015 180.226L7.66015 183.179L4.70703 183.179L4.70703 180.226L7.66015 180.226ZM20 178L20 185.335L17.8203 185.335L17.8203 182.921L11.2695 182.921L11.2695 185.335L9.07812 185.335L9.07812 180.496L17.8203 180.496L17.8203 178L20 178ZM9.07812 173.488L9.07812 171.062L15.8281 171.062C16.6719 171.062 17.2578 170.902 17.5859 170.582C17.9141 170.261 18.0781 169.796 18.0781 169.187C18.0781 168.296 17.7148 167.566 16.9883 166.996C16.2617 166.425 15.2578 166.14 13.9766 166.14L9.07812 166.14L9.07812 163.714L20 163.714L20 166.14L17.2695 166.14C18.207 166.382 18.9414 166.832 19.4727 167.488C20.0039 168.144 20.2695 168.953 20.2695 169.914C20.2695 171.031 19.9062 171.906 19.1797 172.539C18.4453 173.171 17.3281 173.488 15.8281 173.488L9.07812 173.488ZM20 150.039L20 152.464L12.5117 152.464C11.9961 152.464 11.6172 152.519 11.375 152.628C11.125 152.73 11 152.914 11 153.179C11 153.664 11.2734 153.972 11.8203 154.105C12.3594 154.23 13.1484 154.292 14.1875 154.292L20 154.292L20 156.718L12.5117 156.718C11.9961 156.718 11.6172 156.773 11.375 156.882C11.125 156.992 11 157.183 11 157.457C11 157.933 11.2734 158.234 11.8203 158.359C12.3594 158.476 13.1484 158.535 14.1875 158.535L20 158.535L20 160.96L9.07812 160.96L9.07812 158.511L10.6602 158.511C10.0586 158.339 9.60156 158.085 9.28906 157.75C8.97656 157.414 8.82031 156.964 8.82031 156.402C8.82031 155.933 8.96484 155.542 9.2539 155.23C9.53515 154.91 9.92578 154.691 10.4258 154.574C9.8789 154.3 9.47656 154.019 9.21875 153.73C8.95312 153.433 8.82031 152.98 8.82031 152.371C8.82031 151.621 9.09765 151.046 9.65234 150.648C10.1992 150.242 11.0312 150.039 12.1484 150.039L20 150.039Z" fill="#5135ED"/>
<path d="M16.7305 362.445C17.4414 362.445 18.0195 362.605 18.4648 362.925C18.9102 363.246 19.2695 363.66 19.543 364.167C19.8164 364.667 20.0039 365.23 20.1055 365.855C20.2148 366.472 20.2695 367.078 20.2695 367.671C20.2695 368.664 20.125 369.652 19.8359 370.636C19.5469 371.621 19.168 372.472 18.6992 373.191L16.707 372.183C17.207 371.324 17.5625 370.539 17.7734 369.828C17.9766 369.109 18.0781 368.39 18.0781 367.671C18.0781 366.695 17.9766 365.984 17.7734 365.539C17.5625 365.093 17.2734 364.871 16.9062 364.871C16.7266 364.871 16.5781 364.933 16.4609 365.058C16.3437 365.183 16.2383 365.39 16.1445 365.679C16.043 365.968 15.9453 366.351 15.8516 366.828C15.75 367.296 15.6445 367.882 15.5352 368.585C15.4414 369.148 15.3281 369.683 15.1953 370.191C15.0547 370.691 14.8594 371.132 14.6094 371.515C14.3594 371.898 14.043 372.207 13.6602 372.441C13.2773 372.667 12.7969 372.781 12.2187 372.781C11.6328 372.781 11.125 372.632 10.6953 372.335C10.2578 372.031 9.89844 371.636 9.61719 371.152C9.33594 370.66 9.13281 370.109 9.00781 369.5C8.88281 368.89 8.82031 368.281 8.82031 367.671C8.82031 366.812 8.93359 365.98 9.16016 365.175C9.37891 364.363 9.69531 363.652 10.1094 363.042L11.9844 364.003C11.6016 364.613 11.3437 365.207 11.2109 365.785C11.0703 366.355 11 366.984 11 367.671C11 367.96 11.0156 368.261 11.0469 368.574C11.0781 368.886 11.1406 369.175 11.2344 369.441C11.3203 369.707 11.4414 369.929 11.5977 370.109C11.7461 370.281 11.9297 370.367 12.1484 370.367C12.4375 370.367 12.6758 370.113 12.8633 369.605C13.043 369.089 13.2227 368.214 13.4023 366.98C13.4961 366.308 13.6172 365.695 13.7656 365.14C13.9062 364.585 14.1016 364.109 14.3516 363.71C14.5937 363.312 14.9102 363.003 15.3008 362.785C15.6836 362.558 16.1602 362.445 16.7305 362.445ZM15.4648 357.746C16.2148 357.628 16.8398 357.273 17.3398 356.679C17.832 356.078 18.0781 355.273 18.0781 354.265C18.0781 353.476 17.957 352.792 17.7148 352.214C17.4648 351.628 17.1367 351.125 16.7305 350.703L18.4414 349.46C19.1445 350.164 19.625 350.91 19.8828 351.699C20.1406 352.48 20.2695 353.335 20.2695 354.265C20.2695 355.109 20.1289 355.894 19.8477 356.621C19.5664 357.347 19.1758 357.976 18.6758 358.507C18.168 359.039 17.5664 359.457 16.8711 359.761C16.1758 360.058 15.4023 360.207 14.5508 360.207C13.7227 360.207 12.9609 360.07 12.2656 359.796C11.5625 359.515 10.957 359.125 10.4492 358.625C9.93359 358.117 9.53516 357.511 9.25391 356.808C8.96484 356.105 8.82031 355.328 8.82031 354.476C8.82031 353.593 8.97265 352.792 9.27734 352.074C9.57422 351.355 10.0078 350.742 10.5781 350.234C11.1484 349.718 11.8477 349.316 12.6758 349.027C13.4961 348.738 14.4258 348.593 15.4648 348.593L15.4648 357.746ZM13.332 351.335C12.6289 351.46 12.0664 351.824 11.6445 352.425C11.2148 353.027 11 353.71 11 354.476C11 355.242 11.2148 355.929 11.6445 356.539C12.0664 357.148 12.6289 357.515 13.332 357.64L13.332 351.335ZM20 335.949L20 338.375L12.5117 338.375C11.9961 338.375 11.6172 338.429 11.375 338.539C11.125 338.64 11 338.824 11 339.089C11 339.574 11.2734 339.882 11.8203 340.015C12.3594 340.14 13.1484 340.203 14.1875 340.203L20 340.203L20 342.628L12.5117 342.628C11.9961 342.628 11.6172 342.683 11.375 342.792C11.125 342.902 11 343.093 11 343.367C11 343.843 11.2734 344.144 11.8203 344.269C12.3594 344.386 13.1484 344.445 14.1875 344.445L20 344.445L20 346.871L9.07812 346.871L9.07812 344.421L10.6602 344.421C10.0586 344.25 9.60156 343.996 9.28906 343.66C8.97656 343.324 8.82031 342.875 8.82031 342.312C8.82031 341.843 8.96484 341.453 9.2539 341.14C9.53515 340.82 9.92578 340.601 10.4258 340.484C9.8789 340.21 9.47656 339.929 9.21875 339.64C8.95312 339.343 8.82031 338.89 8.82031 338.281C8.82031 337.531 9.09765 336.957 9.65234 336.558C10.1992 336.152 11.0312 335.949 12.1484 335.949L20 335.949ZM7.66015 326.832L7.66015 329.785L4.70703 329.785L4.70703 326.832L7.66015 326.832ZM20 324.605L20 331.941L17.8203 331.941L17.8203 329.527L11.2695 329.527L11.2695 331.941L9.07812 331.941L9.07812 327.101L17.8203 327.101L17.8203 324.605L20 324.605ZM4.70703 320.093L4.70703 317.667L10.0625 317.667C9.64843 317.207 9.33984 316.742 9.13672 316.273C8.92578 315.796 8.82031 315.253 8.82031 314.644C8.82031 313.941 8.96484 313.289 9.2539 312.687C9.53515 312.085 9.92968 311.57 10.4375 311.14C10.9375 310.71 11.543 310.371 12.2539 310.121C12.957 309.871 13.7227 309.746 14.5508 309.746C15.3867 309.746 16.1562 309.871 16.8594 310.121C17.5625 310.371 18.168 310.71 18.6758 311.14C19.1758 311.57 19.5664 312.085 19.8477 312.687C20.1289 313.289 20.2695 313.941 20.2695 314.644C20.2695 315.253 20.1602 315.796 19.9414 316.273C19.7227 316.742 19.4062 317.207 18.9922 317.667L20 317.667L20 320.093L4.70703 320.093ZM17.0937 317.667C17.4141 317.378 17.6602 317.011 17.832 316.566C17.9961 316.113 18.0781 315.679 18.0781 315.265C18.0781 314.351 17.7539 313.609 17.1055 313.039C16.457 312.46 15.6055 312.171 14.5508 312.171C13.4961 312.171 12.6406 312.46 11.9844 313.039C11.3281 313.609 11 314.351 11 315.265C11 315.679 11.0859 316.113 11.2578 316.566C11.4219 317.011 11.6641 317.378 11.9844 317.667L17.0937 317.667ZM14.5508 296.363C15.4023 296.363 16.1758 296.5 16.8711 296.773C17.5664 297.039 18.168 297.425 18.6758 297.933C19.1758 298.433 19.5664 299.035 19.8477 299.738C20.1289 300.441 20.2695 301.226 20.2695 302.093C20.2695 302.945 20.1289 303.722 19.8477 304.425C19.5664 305.128 19.1758 305.734 18.6758 306.242C18.168 306.742 17.5664 307.128 16.8711 307.402C16.1758 307.667 15.4023 307.8 14.5508 307.8C13.7227 307.8 12.957 307.667 12.2539 307.402C11.543 307.128 10.9336 306.742 10.4258 306.242C9.91015 305.734 9.51562 305.128 9.24218 304.425C8.96093 303.722 8.82031 302.945 8.82031 302.093C8.82031 301.226 8.96093 300.441 9.24218 299.738C9.51562 299.035 9.91015 298.433 10.4258 297.933C10.9336 297.425 11.543 297.039 12.2539 296.773C12.957 296.5 13.7227 296.363 14.5508 296.363ZM14.5508 298.777C14.0586 298.777 13.5937 298.855 13.1562 299.011C12.7109 299.16 12.332 299.378 12.0195 299.667C11.707 299.957 11.4609 300.308 11.2812 300.722C11.0937 301.128 11 301.585 11 302.093C11 302.609 11.0937 303.07 11.2812 303.476C11.4609 303.882 11.707 304.226 12.0195 304.507C12.332 304.789 12.7109 305.007 13.1562 305.164C13.5937 305.312 14.0586 305.386 14.5508 305.386C15.0664 305.386 15.5352 305.312 15.957 305.164C16.3789 305.007 16.75 304.789 17.0703 304.507C17.3906 304.226 17.6406 303.882 17.8203 303.476C17.9922 303.07 18.0781 302.609 18.0781 302.093C18.0781 301.585 17.9922 301.128 17.8203 300.722C17.6406 300.308 17.3906 299.957 17.0703 299.667C16.75 299.378 16.3789 299.16 15.957 299.011C15.5352 298.855 15.0664 298.777 14.5508 298.777ZM20 285.277L20 292.613L17.8203 292.613L17.8203 290.222L6.89843 290.222L6.89843 292.613L4.70703 292.613L4.70703 287.796L17.8203 287.796L17.8203 285.277L20 285.277ZM20 271.015L20 273.441L18.9922 273.441C19.4062 273.91 19.7226 274.382 19.9414 274.859C20.1601 275.335 20.2695 275.878 20.2695 276.488C20.2695 277.191 20.1289 277.843 19.8477 278.445C19.5664 279.046 19.1758 279.566 18.6758 280.003C18.168 280.433 17.5625 280.773 16.8594 281.023C16.1562 281.265 15.3867 281.386 14.5508 281.386C13.7227 281.386 12.957 281.265 12.2539 281.023C11.543 280.773 10.9375 280.433 10.4375 280.003C9.92968 279.566 9.53515 279.046 9.2539 278.445C8.96484 277.843 8.82031 277.191 8.82031 276.488C8.82031 275.878 8.92577 275.335 9.13671 274.859C9.33984 274.382 9.64843 273.91 10.0625 273.441L6.89843 273.441L6.89843 275.55L4.70702 275.55L4.70702 271.015L20 271.015ZM11.9844 273.441C11.6641 273.73 11.4219 274.105 11.2578 274.566C11.0859 275.019 11 275.453 11 275.867C11 276.781 11.3281 277.527 11.9844 278.105C12.6406 278.675 13.4961 278.96 14.5508 278.96C15.6055 278.96 16.457 278.675 17.1055 278.105C17.7539 277.527 18.0781 276.781 18.0781 275.867C18.0781 275.453 17.9961 275.019 17.832 274.566C17.6601 274.105 17.4141 273.73 17.0937 273.441L11.9844 273.441Z" fill="#5135ED"/>
<path d="M4.70703 452.74L4.70703 450.314L10.0625 450.314C9.64844 449.853 9.33984 449.388 9.13672 448.919C8.92578 448.443 8.82031 447.9 8.82031 447.291C8.82031 446.587 8.96484 445.935 9.25391 445.333C9.53516 444.732 9.92969 444.216 10.4375 443.787C10.9375 443.357 11.543 443.017 12.2539 442.767C12.957 442.517 13.7227 442.392 14.5508 442.392C15.3867 442.392 16.1562 442.517 16.8594 442.767C17.5625 443.017 18.168 443.357 18.6758 443.787C19.1758 444.216 19.5664 444.732 19.8477 445.333C20.1289 445.935 20.2695 446.587 20.2695 447.291C20.2695 447.9 20.1602 448.443 19.9414 448.919C19.7227 449.388 19.4062 449.853 18.9922 450.314L20 450.314L20 452.74L4.70703 452.74ZM17.0937 450.314C17.4141 450.025 17.6602 449.658 17.832 449.212C17.9961 448.759 18.0781 448.326 18.0781 447.912C18.0781 446.998 17.7539 446.255 17.1055 445.685C16.457 445.107 15.6055 444.818 14.5508 444.818C13.4961 444.818 12.6406 445.107 11.9844 445.685C11.3281 446.255 11 446.998 11 447.912C11 448.326 11.0859 448.759 11.2578 449.212C11.4219 449.658 11.6641 450.025 11.9844 450.314L17.0937 450.314ZM14.5508 429.009C15.4023 429.009 16.1758 429.146 16.8711 429.419C17.5664 429.685 18.168 430.072 18.6758 430.58C19.1758 431.08 19.5664 431.681 19.8477 432.384C20.1289 433.087 20.2695 433.873 20.2695 434.74C20.2695 435.591 20.1289 436.369 19.8477 437.072C19.5664 437.775 19.1758 438.38 18.6758 438.888C18.168 439.388 17.5664 439.775 16.8711 440.048C16.1758 440.314 15.4023 440.447 14.5508 440.447C13.7227 440.447 12.957 440.314 12.2539 440.048C11.543 439.775 10.9336 439.388 10.4258 438.888C9.91016 438.38 9.51562 437.775 9.24219 437.072C8.96094 436.369 8.82031 435.591 8.82031 434.74C8.82031 433.873 8.96094 433.087 9.24219 432.384C9.51562 431.681 9.91015 431.08 10.4258 430.58C10.9336 430.072 11.543 429.685 12.2539 429.419C12.957 429.146 13.7227 429.009 14.5508 429.009ZM14.5508 431.423C14.0586 431.423 13.5937 431.501 13.1562 431.658C12.7109 431.806 12.332 432.025 12.0195 432.314C11.707 432.603 11.4609 432.955 11.2812 433.369C11.0937 433.775 11 434.232 11 434.74C11 435.255 11.0937 435.716 11.2812 436.123C11.4609 436.529 11.707 436.873 12.0195 437.154C12.332 437.435 12.7109 437.654 13.1562 437.81C13.5937 437.958 14.0586 438.033 14.5508 438.033C15.0664 438.033 15.5352 437.958 15.957 437.81C16.3789 437.654 16.75 437.435 17.0703 437.154C17.3906 436.873 17.6406 436.529 17.8203 436.123C17.9922 435.716 18.0781 435.255 18.0781 434.74C18.0781 434.232 17.9922 433.775 17.8203 433.369C17.6406 432.955 17.3906 432.603 17.0703 432.314C16.75 432.025 16.3789 431.806 15.957 431.658C15.5352 431.501 15.0664 431.423 14.5508 431.423ZM20 417.923L20 425.259L17.8203 425.259L17.8203 422.869L6.89844 422.869L6.89844 425.259L4.70703 425.259L4.70703 420.443L17.8203 420.443L17.8203 417.923L20 417.923ZM20 403.662L20 406.087L18.9922 406.087C19.4062 406.556 19.7227 407.029 19.9414 407.505C20.1602 407.982 20.2695 408.525 20.2695 409.134C20.2695 409.837 20.1289 410.49 19.8477 411.091C19.5664 411.693 19.1758 412.212 18.6758 412.65C18.168 413.08 17.5625 413.419 16.8594 413.669C16.1562 413.912 15.3867 414.033 14.5508 414.033C13.7227 414.033 12.957 413.912 12.2539 413.669C11.543 413.419 10.9375 413.08 10.4375 412.65C9.92968 412.212 9.53515 411.693 9.2539 411.091C8.96484 410.49 8.82031 409.837 8.82031 409.134C8.82031 408.525 8.92578 407.982 9.13672 407.505C9.33984 407.029 9.64843 406.556 10.0625 406.087L6.89843 406.087L6.89843 408.197L4.70703 408.197L4.70703 403.662L20 403.662ZM11.9844 406.087C11.6641 406.376 11.4219 406.751 11.2578 407.212C11.0859 407.666 11 408.099 11 408.513C11 409.427 11.3281 410.173 11.9844 410.751C12.6406 411.322 13.4961 411.607 14.5508 411.607C15.6055 411.607 16.457 411.322 17.1055 410.751C17.7539 410.173 18.0781 409.427 18.0781 408.513C18.0781 408.099 17.9961 407.666 17.832 407.212C17.6602 406.751 17.4141 406.376 17.0937 406.087L11.9844 406.087Z" fill="#5135ED"/>
<path d="M15.4648 612.315C16.2148 612.198 16.8398 611.843 17.3398 611.249C17.832 610.647 18.0781 609.843 18.0781 608.835C18.0781 608.046 17.957 607.362 17.7148 606.784C17.4648 606.198 17.1367 605.694 16.7305 605.272L18.4414 604.03C19.1445 604.733 19.625 605.479 19.8828 606.269C20.1406 607.05 20.2695 607.905 20.2695 608.835C20.2695 609.679 20.1289 610.464 19.8477 611.19C19.5664 611.917 19.1758 612.546 18.6758 613.077C18.168 613.608 17.5664 614.026 16.8711 614.331C16.1758 614.628 15.4023 614.776 14.5508 614.776C13.7227 614.776 12.9609 614.64 12.2656 614.366C11.5625 614.085 10.957 613.694 10.4492 613.194C9.93359 612.687 9.53516 612.081 9.25391 611.378C8.96484 610.675 8.82031 609.897 8.82031 609.046C8.82031 608.163 8.97266 607.362 9.27734 606.644C9.57422 605.925 10.0078 605.312 10.5781 604.804C11.1484 604.288 11.8477 603.886 12.6758 603.597C13.4961 603.308 14.4258 603.163 15.4648 603.163L15.4648 612.315ZM13.332 605.905C12.6289 606.03 12.0664 606.394 11.6445 606.995C11.2148 607.597 11 608.28 11 609.046C11 609.812 11.2148 610.499 11.6445 611.108C12.0664 611.718 12.6289 612.085 13.332 612.21L13.332 605.905ZM20 590.261L20 595.44L17.8203 595.44L17.8203 594.479L15.5352 595.968L17.8203 597.433L17.8203 596.542L20 596.542L20 601.675L17.8203 601.675L17.8203 600.093L14.457 597.644L11.2695 599.976L11.2695 601.44L9.07812 601.44L9.07812 596.519L11.2695 596.519L11.2695 597.292L13.3789 595.968L11.2695 594.62L11.2695 595.487L9.07812 595.487L9.07812 590.519L11.2695 590.519L11.2695 591.937L14.457 594.269L17.8203 591.819L17.8203 590.261L20 590.261ZM16.5195 577.3C17.668 577.425 18.582 577.878 19.2617 578.659C19.9336 579.433 20.2695 580.401 20.2695 581.565C20.2695 582.206 20.1641 582.792 19.9531 583.323C19.7422 583.854 19.4492 584.308 19.0742 584.683C18.6992 585.058 18.25 585.351 17.7266 585.562C17.1953 585.765 16.6172 585.866 15.9922 585.866L11.2695 585.866L11.2695 588.339L9.07812 588.339L9.07812 585.866L4.70703 585.866L4.70703 583.44L9.07812 583.44L9.07812 578.858L11.2695 578.858L11.2695 583.44L15.9922 583.44C16.6953 583.44 17.2187 583.269 17.5625 582.925C17.9062 582.581 18.0781 582.128 18.0781 581.565C18.0781 580.878 17.8789 580.366 17.4805 580.03C17.082 579.694 16.6016 579.495 16.0391 579.433L16.5195 577.3ZM11.668 564.585C11.5273 564.874 11.4219 565.171 11.3516 565.476C11.2734 565.772 11.2344 566.116 11.2344 566.507C11.2344 567.046 11.3164 567.554 11.4805 568.03C11.6367 568.499 11.875 568.905 12.1953 569.249C12.5156 569.593 12.918 569.862 13.4023 570.058C13.8789 570.245 14.4453 570.339 15.1016 570.339L17.8203 570.339L17.8203 567.89L20 567.89L20 575.237L17.8203 575.237L17.8203 572.765L11.2695 572.765L11.2695 575.237L9.07812 575.237L9.07812 570.339L11.8203 570.339C10.7266 569.94 9.95312 569.354 9.5 568.581C9.04687 567.8 8.82031 566.874 8.82031 565.804C8.82031 565.468 8.85547 565.116 8.92578 564.749C8.99609 564.382 9.12109 564.022 9.30078 563.671L11.668 564.585ZM16.8594 562.183C16.2187 562.183 15.6602 562.011 15.1836 561.667C14.6992 561.323 14.2969 560.874 13.9766 560.319C13.6562 559.757 13.418 559.116 13.2617 558.397C13.0977 557.671 13.0156 556.933 13.0156 556.183C13.0156 555.769 13.0234 555.413 13.0391 555.116C13.0547 554.819 13.0781 554.519 13.1094 554.214L12.6758 554.214C12.1055 554.214 11.6797 554.437 11.3984 554.882C11.1172 555.319 10.9766 555.897 10.9766 556.616C10.9766 557.272 11.0703 557.94 11.2578 558.62C11.4375 559.3 11.7031 559.944 12.0547 560.554L10.1562 561.538C9.74218 560.819 9.41797 560.05 9.18359 559.229C8.9414 558.401 8.82031 557.53 8.82031 556.616C8.82031 556.022 8.88671 555.44 9.01953 554.87C9.15234 554.292 9.37109 553.776 9.67578 553.323C9.98046 552.862 10.3789 552.495 10.8711 552.222C11.3555 551.948 11.957 551.812 12.6758 551.812L20 551.812L20 554.214L18.3945 554.214C18.9883 554.597 19.4492 555.163 19.7773 555.913C20.1055 556.655 20.2695 557.456 20.2695 558.315C20.2695 558.847 20.1953 559.351 20.0469 559.827C19.9062 560.296 19.6914 560.702 19.4023 561.046C19.1133 561.39 18.7578 561.667 18.3359 561.878C17.9062 562.081 17.4141 562.183 16.8594 562.183ZM18.1016 557.694C18.1016 557.218 18.043 556.772 17.9258 556.358C17.8008 555.937 17.6328 555.565 17.4219 555.245C17.2031 554.925 16.9414 554.675 16.6367 554.495C16.332 554.308 15.9961 554.214 15.6289 554.214L15.2187 554.214C15.1562 554.597 15.1211 554.956 15.1133 555.292C15.1055 555.628 15.1016 555.925 15.1016 556.183C15.1016 557.37 15.2578 558.269 15.5703 558.878C15.8828 559.479 16.2695 559.78 16.7305 559.78C17.6445 559.78 18.1016 559.085 18.1016 557.694ZM4.70703 548.46L4.70703 546.034L10.0625 546.034C9.64843 545.573 9.33984 545.108 9.13671 544.64C8.92578 544.163 8.82031 543.62 8.82031 543.011C8.82031 542.308 8.96484 541.655 9.2539 541.054C9.53515 540.452 9.92968 539.937 10.4375 539.507C10.9375 539.077 11.543 538.737 12.2539 538.487C12.957 538.237 13.7227 538.112 14.5508 538.112C15.3867 538.112 16.1562 538.237 16.8594 538.487C17.5625 538.737 18.168 539.077 18.6758 539.507C19.1758 539.937 19.5664 540.452 19.8477 541.054C20.1289 541.655 20.2695 542.308 20.2695 543.011C20.2695 543.62 20.1602 544.163 19.9414 544.64C19.7227 545.108 19.4062 545.573 18.9922 546.034L20 546.034L20 548.46L4.70703 548.46ZM17.0937 546.034C17.4141 545.745 17.6602 545.378 17.832 544.933C17.9961 544.479 18.0781 544.046 18.0781 543.632C18.0781 542.718 17.7539 541.976 17.1055 541.405C16.457 540.827 15.6055 540.538 14.5508 540.538C13.4961 540.538 12.6406 540.827 11.9844 541.405C11.3281 541.976 11 542.718 11 543.632C11 544.046 11.0859 544.479 11.2578 544.933C11.4219 545.378 11.6641 545.745 11.9844 546.034L17.0937 546.034ZM14.5508 524.729C15.4023 524.729 16.1758 524.866 16.8711 525.14C17.5664 525.405 18.168 525.792 18.6758 526.3C19.1758 526.8 19.5664 527.401 19.8477 528.104C20.1289 528.808 20.2695 529.593 20.2695 530.46C20.2695 531.312 20.1289 532.089 19.8477 532.792C19.5664 533.495 19.1758 534.101 18.6758 534.608C18.168 535.108 17.5664 535.495 16.8711 535.769C16.1758 536.034 15.4023 536.167 14.5508 536.167C13.7227 536.167 12.957 536.034 12.2539 535.769C11.543 535.495 10.9336 535.108 10.4258 534.608C9.91015 534.101 9.51562 533.495 9.24218 532.792C8.96093 532.089 8.82031 531.312 8.82031 530.46C8.82031 529.593 8.96093 528.808 9.24218 528.104C9.51562 527.401 9.91015 526.8 10.4258 526.3C10.9336 525.792 11.543 525.405 12.2539 525.14C12.957 524.866 13.7227 524.729 14.5508 524.729ZM14.5508 527.144C14.0586 527.144 13.5937 527.222 13.1562 527.378C12.7109 527.526 12.332 527.745 12.0195 528.034C11.707 528.323 11.4609 528.675 11.2812 529.089C11.0937 529.495 11 529.952 11 530.46C11 530.976 11.0937 531.437 11.2812 531.843C11.4609 532.249 11.707 532.593 12.0195 532.874C12.332 533.155 12.7109 533.374 13.1562 533.53C13.5937 533.679 14.0586 533.753 14.5508 533.753C15.0664 533.753 15.5352 533.679 15.957 533.53C16.3789 533.374 16.75 533.155 17.0703 532.874C17.3906 532.593 17.6406 532.249 17.8203 531.843C17.9922 531.437 18.0781 530.976 18.0781 530.46C18.0781 529.952 17.9922 529.495 17.8203 529.089C17.6406 528.675 17.3906 528.323 17.0703 528.034C16.75 527.745 16.3789 527.526 15.957 527.378C15.5352 527.222 15.0664 527.144 14.5508 527.144ZM20 513.644L20 520.979L17.8203 520.979L17.8203 518.589L6.89843 518.589L6.89843 520.979L4.70703 520.979L4.70702 516.163L17.8203 516.163L17.8203 513.644L20 513.644ZM20 499.382L20 501.808L18.9922 501.808C19.4062 502.276 19.7226 502.749 19.9414 503.226C20.1601 503.702 20.2695 504.245 20.2695 504.854C20.2695 505.558 20.1289 506.21 19.8476 506.812C19.5664 507.413 19.1758 507.933 18.6758 508.37C18.168 508.8 17.5625 509.14 16.8594 509.39C16.1562 509.632 15.3867 509.753 14.5508 509.753C13.7226 509.753 12.957 509.632 12.2539 509.39C11.543 509.14 10.9375 508.8 10.4375 508.37C9.92968 507.933 9.53515 507.413 9.2539 506.812C8.96484 506.21 8.82031 505.558 8.82031 504.854C8.82031 504.245 8.92577 503.702 9.13671 503.226C9.33984 502.749 9.64843 502.276 10.0625 501.808L6.89843 501.808L6.89843 503.917L4.70702 503.917L4.70702 499.382L20 499.382ZM11.9844 501.808C11.6641 502.097 11.4219 502.472 11.2578 502.933C11.0859 503.386 11 503.819 11 504.233C11 505.147 11.3281 505.894 11.9844 506.472C12.6406 507.042 13.4961 507.327 14.5508 507.327C15.6055 507.327 16.457 507.042 17.1055 506.472C17.7539 505.894 18.0781 505.147 18.0781 504.233C18.0781 503.819 17.9961 503.386 17.832 502.933C17.6601 502.472 17.4141 502.097 17.0937 501.808L11.9844 501.808Z" fill="#5135ED"/>
<path d="M4.70703 709.956L4.70703 707.53L10.0625 707.53C9.64844 707.069 9.33984 706.604 9.13672 706.136C8.92578 705.659 8.82031 705.116 8.82031 704.507C8.82031 703.804 8.96484 703.151 9.25391 702.55C9.53516 701.948 9.92969 701.433 10.4375 701.003C10.9375 700.573 11.543 700.233 12.2539 699.983C12.957 699.733 13.7227 699.608 14.5508 699.608C15.3867 699.608 16.1562 699.733 16.8594 699.983C17.5625 700.233 18.168 700.573 18.6758 701.003C19.1758 701.433 19.5664 701.948 19.8477 702.55C20.1289 703.151 20.2695 703.804 20.2695 704.507C20.2695 705.116 20.1602 705.659 19.9414 706.136C19.7227 706.604 19.4062 707.069 18.9922 707.53L20 707.53L20 709.956L4.70703 709.956ZM17.0937 707.53C17.4141 707.241 17.6602 706.874 17.832 706.429C17.9961 705.976 18.0781 705.542 18.0781 705.128C18.0781 704.214 17.7539 703.472 17.1055 702.901C16.457 702.323 15.6055 702.034 14.5508 702.034C13.4961 702.034 12.6406 702.323 11.9844 702.901C11.3281 703.472 11 704.214 11 705.128C11 705.542 11.0859 705.976 11.2578 706.429C11.4219 706.874 11.6641 707.241 11.9844 707.53L17.0937 707.53ZM20 688.241L20 695.577L17.8203 695.577L17.8203 693.187L6.89844 693.187L6.89844 695.577L4.70703 695.577L4.70703 690.761L17.8203 690.761L17.8203 688.241L20 688.241ZM16.8594 684.374C16.2187 684.374 15.6602 684.202 15.1836 683.858C14.6992 683.515 14.2969 683.065 13.9766 682.511C13.6562 681.948 13.418 681.308 13.2617 680.589C13.0977 679.862 13.0156 679.124 13.0156 678.374C13.0156 677.96 13.0234 677.604 13.0391 677.308C13.0547 677.011 13.0781 676.71 13.1094 676.405L12.6758 676.405C12.1055 676.405 11.6797 676.628 11.3984 677.073C11.1172 677.511 10.9766 678.089 10.9766 678.808C10.9766 679.464 11.0703 680.132 11.2578 680.812C11.4375 681.491 11.7031 682.136 12.0547 682.745L10.1562 683.729C9.74219 683.011 9.41797 682.241 9.18359 681.421C8.9414 680.593 8.82031 679.722 8.82031 678.808C8.82031 678.214 8.88672 677.632 9.01953 677.062C9.15234 676.483 9.37109 675.968 9.67578 675.515C9.98047 675.054 10.3789 674.687 10.8711 674.413C11.3555 674.14 11.957 674.003 12.6758 674.003L20 674.003L20 676.405L18.3945 676.405C18.9883 676.788 19.4492 677.354 19.7773 678.104C20.1055 678.847 20.2695 679.647 20.2695 680.507C20.2695 681.038 20.1953 681.542 20.0469 682.019C19.9062 682.487 19.6914 682.894 19.4023 683.237C19.1133 683.581 18.7578 683.858 18.3359 684.069C17.9062 684.272 17.4141 684.374 16.8594 684.374ZM18.1016 679.886C18.1016 679.409 18.043 678.964 17.9258 678.55C17.8008 678.128 17.6328 677.757 17.4219 677.437C17.2031 677.116 16.9414 676.866 16.6367 676.687C16.332 676.499 15.9961 676.405 15.6289 676.405L15.2187 676.405C15.1562 676.788 15.1211 677.147 15.1133 677.483C15.1055 677.819 15.1016 678.116 15.1016 678.374C15.1016 679.562 15.2578 680.46 15.5703 681.069C15.8828 681.671 16.2695 681.972 16.7305 681.972C17.6445 681.972 18.1016 681.276 18.1016 679.886ZM18.4414 660.714C19.1445 661.417 19.625 662.159 19.8828 662.94C20.1406 663.714 20.2695 664.554 20.2695 665.46C20.2695 666.374 20.1328 667.206 19.8594 667.956C19.5859 668.698 19.2031 669.331 18.7109 669.854C18.2109 670.37 17.6094 670.769 16.9062 671.05C16.2031 671.323 15.418 671.46 14.5508 671.46C13.7227 671.46 12.957 671.323 12.2539 671.05C11.543 670.769 10.9375 670.394 10.4375 669.925C9.92968 669.448 9.53515 668.89 9.2539 668.249C8.96484 667.608 8.82031 666.929 8.82031 666.21C8.82031 665.46 8.97656 664.808 9.28906 664.253C9.60156 663.698 10.0586 663.296 10.6602 663.046L9.07812 663.046L9.07812 660.878L14.1641 660.878L14.1641 663.046C13.2031 663.046 12.4375 663.312 11.8672 663.843C11.2891 664.366 11 665.05 11 665.894C11 666.229 11.0703 666.585 11.2109 666.96C11.3437 667.327 11.5547 667.667 11.8437 667.979C12.1328 668.284 12.5 668.538 12.9453 668.741C13.3906 668.944 13.9258 669.046 14.5508 669.046C15.1602 669.046 15.6875 668.948 16.1328 668.753C16.5703 668.558 16.9336 668.304 17.2227 667.991C17.5039 667.671 17.7187 667.296 17.8672 666.866C18.0078 666.429 18.0781 665.979 18.0781 665.519C18.0781 664.729 17.957 664.046 17.7148 663.468C17.4648 662.882 17.1367 662.378 16.7305 661.956L18.4414 660.714ZM20 647.226L20 650.366L15.582 654.022L16.707 655.124L20 655.124L20 657.55L4.70703 657.55L4.70703 655.124L13.707 655.124L9.07812 650.753L9.07812 647.425L14.0937 652.464L20 647.226Z" fill="#5135ED"/>
</svg>
